<svg width="130" height="132" viewBox="0 0 130 132" fill="none" xmlns="http://www.w3.org/2000/svg">
<g clip-path="url(#clip0_715_336)">
<path d="M75.9401 31.41C75.9401 31.41 74.2101 33.83 74.5501 34.52C75.3731 35.4232 76.3033 36.2224 77.3201 36.9C77.3201 36.9 77.6701 22.39 84.9201 26.9L85.0901 24.66C85.0901 24.66 74.2101 20.34 76.2901 33.12" stroke="#F69946" stroke-width="1.5" stroke-linecap="round" stroke-linejoin="round"/>
<path d="M77.3198 36.9C77.3198 36.9 77.3198 42.08 81.1198 42.77C81.1198 42.77 83.5398 27.57 84.9198 30.33C86.2998 33.09 86.6498 27.23 84.9198 26.88" stroke="#F69946" stroke-width="1.5" stroke-linecap="round" stroke-linejoin="round"/>
<path d="M81.1201 42.81C81.1201 42.81 80.7801 47.3 83.5501 46.95C86.3201 46.6 86.3101 47.95 88.0401 34.17C88.0401 34.17 88.0401 30.72 85.9701 31.07" stroke="#F69946" stroke-width="1.5" stroke-linecap="round" stroke-linejoin="round"/>
<path d="M86.2998 45.57C86.2998 45.57 89.7498 48.68 90.4498 43.84C90.4913 43.0372 90.4913 42.2328 90.4498 41.43L88.0298 35.9" stroke="#F69946" stroke-width="1.5" stroke-linecap="round" stroke-linejoin="round"/>
<path d="M90.4498 41.43C90.4498 41.77 94.5898 45.57 96.6598 42.12C98.7298 38.67 88.0298 35.9 88.0298 35.9" stroke="#F69946" stroke-width="1.5" stroke-linecap="round" stroke-linejoin="round"/>
<path d="M94.9298 38.66C94.9298 38.66 99.4198 40.04 99.0798 36.25C99.0798 36.25 99.7698 34.52 94.2398 33.48C94.2398 33.48 88.3698 31.58 87.3398 31.84" stroke="#F69946" stroke-width="1.5" stroke-linecap="round" stroke-linejoin="round"/>
<path d="M74.5501 34.52C74.5501 34.52 69.3701 33.14 69.3701 38.32C69.3701 38.32 71.7901 37.97 77.6601 42.46C77.6601 42.46 79.3801 42.98 79.3801 42.2" stroke="#F69946" stroke-width="1.5" stroke-linecap="round" stroke-linejoin="round"/>
<path d="M69.3802 38.32C69.3802 38.32 64.8902 37.63 64.2002 42.12C64.2002 42.12 65.5802 41.77 70.0702 43.5C70.0702 43.5 75.5902 44.19 78.0102 42.5" stroke="#F69946" stroke-width="1.5" stroke-linecap="round" stroke-linejoin="round"/>
<path d="M64.1999 42.12C64.1999 42.12 60.0499 41.43 58.6699 46.61C60.6323 46.4166 62.613 46.5313 64.5399 46.95C66.6199 47.64 72.1399 49.02 76.6299 43.15" stroke="#F69946" stroke-width="1.5" stroke-linecap="round" stroke-linejoin="round"/>
<path d="M58.67 46.61C58.67 46.61 52.46 49.71 54.18 54.55C54.18 54.55 54.87 50.06 66.27 51.1C66.27 51.1 71.11 48.68 71.45 47.3" stroke="#F69946" stroke-width="1.5" stroke-linecap="round" stroke-linejoin="round"/>
<path d="M54.5501 53.9C54.5501 53.9 50.0601 60.11 56.2801 64.6C56.2801 64.6 53.5101 56.32 63.1801 54.24C63.1801 54.24 65.9501 53.55 66.2901 51.14" stroke="#F69946" stroke-width="1.5" stroke-linecap="round" stroke-linejoin="round"/>
<path d="M56.2598 64.56C56.2598 64.56 59.7098 71.47 65.2598 69.74C65.2598 69.74 57.3198 64.22 62.8498 58C62.8498 58 65.2598 53.51 63.5398 54.2" stroke="#F69946" stroke-width="1.5" stroke-linecap="round" stroke-linejoin="round"/>
<path d="M62.8198 57.66C62.8198 57.66 65.2298 58.35 65.5798 63.18C65.5798 63.18 66.9598 67.33 72.4898 69.74C72.4898 69.74 70.4098 71.47 65.2298 69.74" stroke="#F69946" stroke-width="1.5" stroke-linecap="round" stroke-linejoin="round"/>
<path d="M65.23 60.77C65.23 60.77 68.69 59.38 73.52 64.22C78.35 69.06 81.12 68.36 81.12 68.36C81.12 68.36 80.12 71.47 72.49 69.74" stroke="#F69946" stroke-width="1.5" stroke-linecap="round" stroke-linejoin="round"/>
<path d="M70.0698 61.8C70.0698 61.8 73.8698 57.31 81.0698 63.53C88.2698 69.75 88.6698 67.67 88.6698 67.67C88.6698 67.67 84.8698 70.09 81.0698 68.36" stroke="#F69946" stroke-width="1.5" stroke-linecap="round" stroke-linejoin="round"/>
<path d="M76.98 60.77C76.98 60.77 80.43 57.66 85.26 60.77C90.09 63.88 93.26 65.6 95.26 65.6C94.4689 66.5232 93.4351 67.2064 92.2757 67.5722C91.1163 67.9381 89.8776 67.9719 88.7 67.67" stroke="#F69946" stroke-width="1.5" stroke-linecap="round" stroke-linejoin="round"/>
<path d="M83.8799 60.07C83.8799 60.07 85.2599 56.97 90.0999 58.35C94.9399 59.73 99.7699 62.49 102.19 62.15C102.19 62.15 103.19 65.25 95.2799 65.6" stroke="#F69946" stroke-width="1.5" stroke-linecap="round" stroke-linejoin="round"/>
<path d="M90.4502 58.35C90.4502 58.35 90.4502 55.24 98.7302 56.28C101.936 57.1534 105.058 58.3079 108.06 59.73C108.06 59.73 107.71 62.49 102.19 62.15" stroke="#F69946" stroke-width="1.5" stroke-linecap="round" stroke-linejoin="round"/>
<path d="M101.55 54.2C101.89 52.82 103.62 52.13 103.62 52.13C103.62 52.13 111.55 54.9 112.89 58.69C111.41 59.4829 109.733 59.8302 108.06 59.69" stroke="#F69946" stroke-width="1.5" stroke-linecap="round" stroke-linejoin="round"/>
<path d="M96.3198 55.9C96.9405 54.9353 97.8202 54.1648 98.8583 53.6767C99.8964 53.1886 101.051 53.0026 102.19 53.14" stroke="#F69946" stroke-width="1.5" stroke-linecap="round" stroke-linejoin="round"/>
<path d="M103.55 52.13C105.4 50.6421 107.741 49.9033 110.11 50.06C113.91 50.4 118.05 54.89 116.67 60.42C116.67 60.42 113.91 60.42 112.87 58.69" stroke="#F69946" stroke-width="1.5" stroke-linecap="round" stroke-linejoin="round"/>
<path d="M110.48 50.06C110.48 50.06 118.42 45.22 121.18 55.24C121.18 55.24 122.91 59.04 118.07 63.53C118.07 63.53 116.35 63.18 116.69 60.42" stroke="#F69946" stroke-width="1.5" stroke-linecap="round" stroke-linejoin="round"/>
<path d="M117.73 63.53C117.73 63.53 117.73 66.64 118.07 66.98C118.41 67.32 126.71 64.56 126.07 57.98C125.915 56.1655 125.146 54.4581 123.89 53.1399C122.633 51.8217 120.965 50.9716 119.16 50.73" stroke="#F69946" stroke-width="1.5" stroke-linecap="round" stroke-linejoin="round"/>
<path d="M118.07 66.98C118.07 66.98 115.31 69.4 115.31 72.16C117.305 71.375 119.41 70.9093 121.55 70.78C124.31 70.78 132.25 64.22 126.04 58" stroke="#F69946" stroke-width="1.5" stroke-linecap="round" stroke-linejoin="round"/>
<path d="M115.31 72.16C114.223 72.5047 113.226 73.0861 112.391 73.8625C111.555 74.639 110.903 75.591 110.48 76.65C113.669 76.0687 116.911 75.8373 120.15 75.96C124.29 76.31 127.05 73.2 127.4 66.29" stroke="#F69946" stroke-width="1.5" stroke-linecap="round" stroke-linejoin="round"/>
<path d="M110.48 76.65C110.48 76.65 107.37 77.34 106.33 79.41C106.33 79.41 110.48 79.07 112.55 80.41C114.62 81.75 123.25 81.41 123.94 74.88" stroke="#F69946" stroke-width="1.5" stroke-linecap="round" stroke-linejoin="round"/>
<path d="M106.68 79.41C106.68 79.41 99.7701 80.1 99.0801 84.25C100.062 84.3775 101.004 84.7188 101.84 85.25C101.84 85.25 102.19 83.17 105.64 84.25C109.09 85.33 116.35 88.39 118.76 80.8" stroke="#F69946" stroke-width="1.5" stroke-linecap="round" stroke-linejoin="round"/>
<path d="M101.84 85.29C101.84 85.29 114.96 94.95 105.99 101.52C105.99 101.52 97.3498 85.63 97.6998 84.25C97.916 84.1497 98.1515 84.0978 98.3898 84.0978C98.6281 84.0978 98.8636 84.1497 99.0798 84.25" stroke="#F69946" stroke-width="1.5" stroke-linecap="round" stroke-linejoin="round"/>
<path d="M98.0401 84.25C98.0401 84.25 94.9301 78.72 91.8301 83.56C88.7301 88.4 99.0801 97.37 103.55 97.03" stroke="#F69946" stroke-width="1.5" stroke-linecap="round" stroke-linejoin="round"/>
<path d="M93.2101 81.83C93.2101 81.83 87.2901 81.69 89.4101 88.05C89.7501 89.05 90.7901 92.19 95.9701 93.23" stroke="#F69946" stroke-width="1.5" stroke-linecap="round" stroke-linejoin="round"/>
<path d="M105.99 101.17C105.99 101.17 107.37 103.93 106.33 105.32C108.239 104.651 109.878 103.378 111 101.695C112.122 100.012 112.666 98.0095 112.55 95.99C112.2 88.74 105.99 89.43 105.99 89.43" stroke="#F69946" stroke-width="1.5" stroke-linecap="round" stroke-linejoin="round"/>
<path d="M106.33 89.43C106.33 89.43 110.13 90.12 112.89 85.63" stroke="#F69946" stroke-width="1.5" stroke-linecap="round" stroke-linejoin="round"/>
<path d="M95.9699 93.23C95.9699 93.23 88.3699 91.16 86.6499 95.65C86.6499 95.65 93.5499 101.86 101.84 99.44C101.84 99.44 103.22 97.72 101.5 96.68" stroke="#F69946" stroke-width="1.5" stroke-linecap="round" stroke-linejoin="round"/>
<path d="M101.84 99.44C101.84 99.44 104.6 106.7 105.3 106.35C105.722 106.119 106.069 105.772 106.3 105.35" stroke="#F69946" stroke-width="1.5" stroke-linecap="round" stroke-linejoin="round"/>
<path d="M84.9199 24.9C84.9199 24.9 99.4099 14.02 111.86 13.16C121.86 12.47 126.36 18.34 126.36 18.34C126.36 18.34 123.94 31.46 118.42 33.19C118.42 33.19 103.57 13.85 90.0999 32.5" stroke="#F69946" stroke-width="1.5" stroke-linecap="round" stroke-linejoin="round"/>
<path d="M92.1699 20.01C92.1699 20.01 109.44 7.89999 107.71 1.01999C107.71 1.01999 122.91 -2.78001 126.36 18.29" stroke="#F69946" stroke-width="1.5" stroke-linecap="round" stroke-linejoin="round"/>
<path d="M95.9702 33.83C101.774 33.2552 107.237 30.825 111.55 26.9" stroke="#F69946" stroke-width="1.5" stroke-linecap="round" stroke-linejoin="round"/>
<path d="M90.4502 92.9C88.7148 91.2072 86.6606 89.8759 84.4067 88.9832C82.1527 88.0906 79.744 87.6544 77.3201 87.7C77.3201 87.7 75.9402 90.81 74.9002 91.16C73.8602 91.51 82.5502 94.95 86.6502 95.65" stroke="#F69946" stroke-width="1.5" stroke-linecap="round" stroke-linejoin="round"/>
<path d="M72.1401 116.71C73.5201 118.09 96.3201 115.5 102.19 100.71" stroke="#F69946" stroke-width="1.5" stroke-linecap="round" stroke-linejoin="round"/>
<path d="M96.5499 99.96C96.5499 99.96 92.5499 104.96 69.3599 108.08" stroke="#F69946" stroke-width="1.5" stroke-linecap="round" stroke-linejoin="round"/>
<path d="M99.77 104.97C99.77 104.97 92.17 120.17 83.54 127.07C83.54 127.07 90.1 124.31 93.54 126.07C93.54 126.07 98.72 111.56 105.29 106.38" stroke="#F69946" stroke-width="1.5" stroke-linecap="round" stroke-linejoin="round"/>
<path d="M74.9 91.16L70.76 89.43C70.76 89.43 60.76 96.68 78.36 130.53L84.23 126.73" stroke="#F69946" stroke-width="1.5" stroke-linecap="round" stroke-linejoin="round"/>
<path d="M86.0098 29.17C86.0098 29.17 103.68 9.65 124.35 24.68" stroke="#F69946" stroke-width="1.5" stroke-linecap="round" stroke-linejoin="round"/>
<path d="M105.99 14.14C105.99 14.14 118.88 9.42 119.17 3.84" stroke="#F69946" stroke-width="1.5" stroke-linecap="round" stroke-linejoin="round"/>
<path d="M95.2798 33.48C95.2798 33.48 98.6798 25.14 108.4 29.34" stroke="#F69946" stroke-width="1.5" stroke-linecap="round" stroke-linejoin="round"/>
<path d="M20.76 56.67C31.8112 56.67 40.77 47.7112 40.77 36.66C40.77 25.6088 31.8112 16.65 20.76 16.65C9.70878 16.65 0.75 25.6088 0.75 36.66C0.75 47.7112 9.70878 56.67 20.76 56.67Z" stroke="#F69946" stroke-width="1.5" stroke-linecap="round" stroke-linejoin="round"/>
<path d="M17.0298 17.06C17.0298 17.06 17.7198 19.88 22.0298 30.33C26.4498 40.99 40.1298 42.8 40.7298 35.33" stroke="#F69946" stroke-width="1.5" stroke-linecap="round" stroke-linejoin="round"/>
<path d="M3.5498 26.11C3.5498 26.11 19.4498 44 37.1398 48.03" stroke="#F69946" stroke-width="1.5" stroke-linecap="round" stroke-linejoin="round"/>
<path d="M1.75 43C5.05928 43.2954 8.35056 43.7661 11.61 44.41C17.44 45.61 31.31 51.04 27.09 55.67" stroke="#F69946" stroke-width="1.5" stroke-linecap="round" stroke-linejoin="round"/>
<path d="M12.21 54.9C12.21 54.9 21.73 53.72 29.55 38.61C37.37 23.5 32.13 20.28 32.13 20.28" stroke="#F69946" stroke-width="1.5" stroke-linecap="round" stroke-linejoin="round"/>
<path d="M26.68 85.53C26.31 78.53 24.23 77.21 24.23 77.21C23.4423 76.4238 22.4388 75.8892 21.3469 75.674C20.255 75.4587 19.1237 75.5725 18.0965 76.001C17.0694 76.4294 16.1925 77.1532 15.5772 78.0805C14.9618 79.0079 14.6356 80.0971 14.64 81.21V81.27C13.527 81.2628 12.437 81.5868 11.5087 82.2009C10.5803 82.8149 9.85565 83.6913 9.42679 84.7184C8.99794 85.7455 8.88431 86.8769 9.10035 87.9688C9.3164 89.0607 9.85235 90.0636 10.64 90.85C10.64 90.85 12.53 93.5 18.96 93.31L35.03 109.38C34.7283 110.942 34.7283 112.548 35.03 114.11C35.5148 115.505 36.3642 116.744 37.49 117.7C38.2778 118.486 39.2812 119.021 40.3732 119.236C41.4651 119.451 42.5964 119.338 43.6235 118.909C44.6507 118.481 45.5276 117.757 46.1429 116.829C46.7583 115.902 47.0844 114.813 47.08 113.7H47.14C48.2531 113.707 49.3431 113.383 50.2714 112.769C51.1997 112.155 51.9244 111.279 52.3533 110.252C52.7821 109.225 52.8958 108.093 52.6797 107.001C52.4637 105.909 51.9277 104.906 51.14 104.12C50.279 103.293 49.2582 102.649 48.14 102.23C46.4102 101.804 44.6309 101.612 42.85 101.66L26.68 85.53Z" stroke="#F69946" stroke-width="1.5" stroke-linecap="round" stroke-linejoin="round"/>
</g>
<defs>
<clipPath id="clip0_715_336">
<rect width="129.09" height="131.27" fill="white"/>
</clipPath>
</defs>
</svg>
