<svg width="161" height="134" viewBox="0 0 161 134" fill="none" xmlns="http://www.w3.org/2000/svg">
<g clip-path="url(#clip0_713_278)">
<mask id="mask0_713_278" style="mask-type:luminance" maskUnits="userSpaceOnUse" x="0" y="0" width="161" height="134">
<path d="M160.66 0H0V133.5H160.66V0Z" fill="white"/>
</mask>
<g mask="url(#mask0_713_278)">
<path d="M157.46 112.89C154.72 104.69 146.63 97.35 137.34 97.12C136.537 97.0147 135.723 97.0147 134.92 97.12C124.63 98.12 115.2 104.62 112.92 106.3C108.44 109.52 108.39 112.3 108.46 113.18C108.472 113.441 108.498 113.702 108.54 113.96C109.101 117.688 110.621 121.206 112.95 124.17C112.95 124.17 110.78 125.8 96.3499 125.33H96.1599H95.4199V125.45C94.7917 125.58 94.2259 125.919 93.814 126.411C93.402 126.902 93.168 127.519 93.1499 128.16C93.1776 128.894 93.4834 129.589 94.0053 130.106C94.5272 130.622 95.226 130.92 95.9599 130.94C95.9599 130.94 117.37 132.07 119.06 131.51C120.054 131.285 121.003 130.896 121.87 130.36C122.43 132.05 158.5 132.61 159.62 128.11C160.64 124.2 158.54 116.27 157.46 112.89Z" stroke="#F69946" stroke-width="1.5" stroke-linecap="round" stroke-linejoin="round"/>
<path d="M71.8999 103.86C73.5221 103.812 75.0842 103.235 76.348 102.217C77.6118 101.198 78.508 99.7949 78.8999 98.22C78.8999 98.22 80.1799 92.6 80.7399 92.04C81.2999 91.48 86.4599 88.66 84.8899 80.11" stroke="#F69946" stroke-width="1.5" stroke-linecap="round" stroke-linejoin="round"/>
<path d="M113.46 44.37C112.183 46.2611 110.452 47.8015 108.425 48.8498C106.399 49.8981 104.141 50.4208 101.86 50.37C94.5498 50.37 88.6198 47.17 88.6198 40.79C88.6198 39.67 89.9698 39 90.3098 37.97C89.8198 37.7 89.2098 35.6 88.6198 35.72C85.7998 36.28 84.0398 40.52 84.1098 40.79C83.6098 41.32 81.9798 41.52 77.6398 43.58C76.8985 43.8342 76.1875 44.1696 75.5198 44.58C74.1298 45.16 67.1498 51.33 55.9898 79.7C55.8898 79.7 55.7998 80.25 55.6998 80.25C50.3398 85.32 49.7798 84.19 45.5898 86.36" stroke="#F69946" stroke-width="1.5" stroke-linecap="round" stroke-linejoin="round"/>
<path d="M142.2 97.68C145.826 92.4426 147.587 86.1385 147.2 79.78C147.2 79.55 134.14 49.05 131.89 46.09C130.959 44.3148 129.56 42.8279 127.845 41.7898C126.13 40.7517 124.165 40.202 122.16 40.2C121.87 40.2 121.59 40.2 121.3 40.2C121.254 39.603 121.062 39.0264 120.741 38.5208C120.42 38.0151 119.981 37.596 119.46 37.3" stroke="#F69946" stroke-width="1.5" stroke-linecap="round" stroke-linejoin="round"/>
<path d="M86.9702 98.8C87.9102 100.56 89.2202 102.18 90.2702 103.92C91.0502 105.2 93.1302 105 94.8602 105C95.2277 105 95.5949 104.98 95.9602 104.94C103.02 104.69 116.44 101.13 124.16 99.37C124.85 99.21 125.56 99.07 126.28 98.96" stroke="#F69946" stroke-width="1.5" stroke-linecap="round" stroke-linejoin="round"/>
<path d="M80.3999 106.95C78.6291 105.941 76.6053 105.462 74.5699 105.57C63.8699 106.69 41.1899 134.95 63.8699 132.57C66.3999 132.31 74.3999 131.45 74.5699 131.45C75.2396 131.447 75.9081 131.393 76.5699 131.29L93.7099 130.29C92.0199 126.35 95.3999 125.22 95.3999 125.22H101.4L102.18 124.66C100.67 115.65 84.4599 108.37 80.3999 106.95Z" stroke="#F69946" stroke-width="1.5" stroke-linecap="round" stroke-linejoin="round"/>
<path d="M66.12 72.88C66.12 72.88 58.79 76.26 58.23 79.64V88.64" stroke="#F69946" stroke-width="1.5" stroke-linecap="round" stroke-linejoin="round"/>
<path d="M84.72 79.64C84.72 79.64 88.66 84.72 88.66 95.42C88.66 95.42 93.66 85.84 93.73 83.59C93.8 81.34 91.19 79.92 84.73 73.45C82.47 71.19 77.27 69.64 75.15 69.45C69.25 69.06 64.44 73.45 64.44 75.98C64.44 76.06 64.44 76.13 64.44 76.21C64.4509 76.5954 64.4877 76.9795 64.55 77.36C64.2375 79.2316 64.2072 81.1394 64.46 83.02C64.89 86.02 64.33 92.43 64.04 95.2" stroke="#F69946" stroke-width="1.5" stroke-linecap="round" stroke-linejoin="round"/>
<path d="M88.66 95.42C88.66 95.42 86.41 100.49 84.72 101.06C83.83 101.35 83.83 97.69 84.15 94.3C84.44 91.23 84.86 88.54 87.53 86.41" stroke="#F69946" stroke-width="1.5" stroke-linecap="round" stroke-linejoin="round"/>
<path d="M46.8802 102.88L71.7502 103.87L58.1602 88.59L29.4902 87.53L38.7002 97.48" stroke="#F69946" stroke-width="1.5" stroke-linecap="round" stroke-linejoin="round"/>
<path d="M29.4601 87.53C29.4601 87.53 30.0301 88.1 24.3901 88.1" stroke="#F69946" stroke-width="1.5" stroke-linecap="round" stroke-linejoin="round"/>
<path d="M0.75 70.06L28.93 95.98" stroke="#F69946" stroke-width="1.5" stroke-linecap="round" stroke-linejoin="round"/>
<path d="M30.67 95.17L24.42 88.09L0.75 70.06" stroke="#F69946" stroke-width="1.5" stroke-linecap="round" stroke-linejoin="round"/>
<path d="M3.01025 71.19C3.01025 71.19 4.70025 67.81 7.51025 69.5C10.3202 71.19 27.2402 81.9 26.1102 86.97C26.1102 86.97 33.4402 82.46 44.7102 86.41L58.2302 88.1" stroke="#F69946" stroke-width="1.5" stroke-linecap="round" stroke-linejoin="round"/>
<path d="M93.5898 85.63C98.4952 85.0104 103.436 84.7064 108.38 84.72C116.69 84.72 125.21 79.35 127.54 79.64C127.54 79.64 119.65 68.37 119.09 63.87" stroke="#F69946" stroke-width="1.5" stroke-linecap="round" stroke-linejoin="round"/>
<path d="M76.8301 67.81C76.8301 67.81 74.0101 57.1 72.8301 55.98" stroke="#F69946" stroke-width="1.5" stroke-linecap="round" stroke-linejoin="round"/>
<path d="M28.9302 95.99C28.9302 95.99 32.8702 102.18 34.0002 102.18C35.1302 102.18 46.7502 102.75 46.7502 102.75C46.7502 102.75 49.7502 98.8 45.2702 99.93C45.2702 99.93 44.1402 97.11 41.8902 99.37C41.8902 99.37 40.2002 95.99 37.8902 98.24C35.5802 100.49 34.5102 99.93 34.5102 99.93C34.5102 99.93 31.1802 93.17 28.9302 95.99Z" stroke="#F69946" stroke-width="1.5" stroke-linecap="round" stroke-linejoin="round"/>
<path d="M119.46 37.27C120.366 35.2688 120.833 33.0968 120.83 30.9" stroke="#F69946" stroke-width="1.5" stroke-linecap="round" stroke-linejoin="round"/>
<path d="M102.94 46.22C103.714 46.3407 104.497 46.4009 105.28 46.4C108.273 46.4096 111.204 45.5525 113.72 43.9324C116.237 42.3123 118.23 39.9983 119.46 37.27" stroke="#F69946" stroke-width="1.5" stroke-linecap="round" stroke-linejoin="round"/>
<path d="M105 0.75C96.6 0.75 88.1 8.08 88.66 17.09" stroke="#F69946" stroke-width="1.5" stroke-linecap="round" stroke-linejoin="round"/>
<path d="M120.78 31.75C121.34 27.75 120.22 12.02 120.22 12.02L120.14 10.47C119.36 2.79 112.88 0.75 105 0.75" stroke="#F69946" stroke-width="1.5" stroke-linecap="round" stroke-linejoin="round"/>
<path d="M102.46 15.01C100.692 12.7447 98.2352 11.1161 95.4602 10.37C91.8402 9.47 88.7002 14.91 88.7002 20.51C88.7027 21.392 88.783 22.2721 88.9402 23.14C88.4091 24.4555 88.1374 25.8613 88.1402 27.28C88.1402 27.67 87.5702 35.17 92.6502 40.8C92.6924 40.842 92.7394 40.879 92.7902 40.91C93.0983 41.2321 93.4697 41.4872 93.8809 41.6593C94.2921 41.8314 94.7345 41.9167 95.1802 41.91H96.0302C99.8763 41.43 103.648 40.4761 107.26 39.07" stroke="#F69946" stroke-width="1.5" stroke-linecap="round" stroke-linejoin="round"/>
<path d="M103.31 45.83C105.194 44.2763 106.596 42.218 107.352 39.8962C108.108 37.5744 108.187 35.0851 107.58 32.72C107.58 32.72 103.88 17.09 101.06 10.89" stroke="#F69946" stroke-width="1.5" stroke-linecap="round" stroke-linejoin="round"/>
<path d="M94.8599 10.37C94.8599 10.37 97.1099 6.99 107.86 1.37" stroke="#F69946" stroke-width="1.5" stroke-linecap="round" stroke-linejoin="round"/>
<path d="M121.91 129.8C121.91 129.8 123.04 124.73 132.62 124.73H148.39C148.39 124.73 155.16 125.29 150.08 112.89" stroke="#F69946" stroke-width="1.5" stroke-linecap="round" stroke-linejoin="round"/>
<path d="M47.5201 103.31C44.5201 105.54 32.8701 112.92 32.8701 124.16C32.8701 127.94 40.7601 134.87 46.9601 131.49C49.3745 130.3 51.6684 128.88 53.8101 127.25" stroke="#F69946" stroke-width="1.5" stroke-linecap="round" stroke-linejoin="round"/>
<path d="M80.21 94.11L84.15 93.73" stroke="#F69946" stroke-width="1.5" stroke-linecap="round" stroke-linejoin="round"/>
<path d="M81.3301 91.85L84.1501 91.48" stroke="#F69946" stroke-width="1.5" stroke-linecap="round" stroke-linejoin="round"/>
<path d="M79.0801 98.8C79.1601 98.52 83.8701 98.9 83.8701 98.9L83.7901 96.27L79.9101 96.64" stroke="#F69946" stroke-width="1.5" stroke-linecap="round" stroke-linejoin="round"/>
<path d="M88.9399 102.56C88.9399 102.56 78.7099 105.94 78.0499 106.04C77.3899 106.14 76.8299 104.44 78.5199 103.31C80.2099 102.18 84.7199 101.06 84.7199 101.06L78.5199 100.49" stroke="#F69946" stroke-width="1.5" stroke-linecap="round" stroke-linejoin="round"/>
<path d="M77.46 87.93C77.46 87.13 79.58 84.53 82.26 86.93C82.2909 86.9541 82.3166 86.9843 82.3355 87.0187C82.3544 87.0531 82.3661 87.0909 82.37 87.13C82.37 87.75 79.79 90.46 77.58 88.23C77.5092 88.1453 77.4671 88.0402 77.46 87.93Z" fill="#F69946"/>
<path d="M70.0602 85.72C70.3402 85.18 69.7002 81.41 66.8702 81.93C66.7831 81.9619 66.7045 82.0132 66.6402 82.08C66.2202 82.68 66.2402 86.58 69.8902 85.82C69.956 85.8054 70.0155 85.7704 70.0602 85.72Z" fill="#F69946"/>
<path d="M108.95 112.89C108.95 112.89 124.95 119.89 123.95 126.79" stroke="#F69946" stroke-width="1.5" stroke-linecap="round" stroke-linejoin="round"/>
<path d="M67.8101 103.88C68.3701 104.3 73.0201 104.16 72.3201 106.13" stroke="#F69946" stroke-width="1.5" stroke-linecap="round" stroke-linejoin="round"/>
<path d="M92.04 40.2C92.04 40.2 92.61 45.27 92.04 46.4" stroke="#F69946" stroke-width="1.5" stroke-linecap="round" stroke-linejoin="round"/>
<path d="M41.89 99.37C41.89 99.37 39.78 102.04 38.02 102.11" stroke="#F69946" stroke-width="1.5" stroke-linecap="round" stroke-linejoin="round"/>
<path d="M45.2698 99.93C44.4107 101.027 43.3175 101.919 42.0698 102.54" stroke="#F69946" stroke-width="1.5" stroke-linecap="round" stroke-linejoin="round"/>
<path d="M67.8099 94.3C67.8099 94.3 67.2499 95.99 69.4999 97.68C71.7499 99.37 75.1399 97.68 75.1399 96.55C75.1399 95.99 73.5599 94.98 71.1399 94.3C70.1499 93.99 67.8099 93.73 67.8099 94.3Z" fill="#F69946"/>
<path d="M70.6298 97.68C70.361 98.9803 70.1739 100.296 70.0698 101.62" stroke="#F69946" stroke-width="1.5" stroke-linecap="round" stroke-linejoin="round"/>
<path d="M93.8701 129.73C93.8701 129.73 94.3001 126.98 98.8001 127.54" stroke="#F69946" stroke-width="1.5" stroke-linecap="round" stroke-linejoin="round"/>
</g>
</g>
<defs>
<clipPath id="clip0_713_278">
<rect width="161" height="134" fill="white"/>
</clipPath>
</defs>
</svg>
