<svg width="137" height="87" viewBox="0 0 137 87" fill="none" xmlns="http://www.w3.org/2000/svg">
<g clip-path="url(#clip0_716_395)">
<path d="M68.5 42.13C97.2078 42.13 120.48 32.8668 120.48 21.44C120.48 10.0132 97.2078 0.75 68.5 0.75C39.7923 0.75 16.52 10.0132 16.52 21.44C16.52 32.8668 39.7923 42.13 68.5 42.13Z" stroke="#F69946" stroke-width="1.5" stroke-linecap="round" stroke-linejoin="round"/>
<path d="M135.87 56.61C136.12 57.5361 136.248 58.4908 136.25 59.45C136.25 74.16 105.92 86.09 68.5 86.09C31.08 86.09 0.75 74.16 0.75 59.45C0.750946 58.411 0.899085 57.3774 1.19 56.38" stroke="#F69946" stroke-width="1.5" stroke-linecap="round" stroke-linejoin="round"/>
<path d="M41.9102 39.15C47.6702 35.64 57.4302 33.33 68.5002 33.33C79.5702 33.33 89.3702 35.65 95.1302 39.17" stroke="#F69946" stroke-width="1.5" stroke-linecap="round" stroke-linejoin="round"/>
<path d="M1.08984 57.12C2.43657 50.7617 4.34059 44.5343 6.77984 38.51C8.83984 33.36 16.9498 19.03 16.9498 19.03" stroke="#F69946" stroke-width="1.5" stroke-linecap="round" stroke-linejoin="round"/>
<path d="M135.91 57.12C134.558 50.7632 132.654 44.5363 130.22 38.51C128.15 33.36 120.04 19.03 120.04 19.03" stroke="#F69946" stroke-width="1.5" stroke-linecap="round" stroke-linejoin="round"/>
<path d="M131.05 60.75C129.704 54.3883 127.8 48.1575 125.36 42.13C124.68 40.41 123.31 37.66 121.8 34.77" stroke="#F69946" stroke-width="1.5" stroke-linecap="round" stroke-linejoin="round"/>
<path d="M98.2499 62.3C98.2499 62.15 98.1999 62 98.1799 61.84L101.73 58.29C102.146 57.8756 102.476 57.3832 102.701 56.8409C102.927 56.2986 103.043 55.7172 103.043 55.13C103.043 54.5428 102.927 53.9614 102.701 53.4191C102.476 52.8769 102.146 52.3844 101.73 51.97L101.49 51.71C101.076 51.294 100.583 50.9639 100.041 50.7386C99.4985 50.5134 98.9171 50.3974 98.3299 50.3974C97.7427 50.3974 97.1613 50.5134 96.619 50.7386C96.0767 50.9639 95.5843 51.294 95.1699 51.71L91.4399 55.44C76.2081 57.38 60.7917 57.38 45.5599 55.44L41.8499 51.71C41.4347 51.2937 40.9414 50.9633 40.3983 50.738C39.8552 50.5126 39.2729 50.3965 38.6849 50.3965C38.0969 50.3965 37.5147 50.5126 36.9715 50.738C36.4284 50.9633 35.9351 51.2937 35.5199 51.71L35.2599 51.97C34.4245 52.8095 33.9556 53.9457 33.9556 55.13C33.9556 56.3144 34.4245 57.4505 35.2599 58.29L39.0099 62.04L35.2599 65.78C34.4245 66.6195 33.9556 67.7557 33.9556 68.94C33.9556 70.1244 34.4245 71.2605 35.2599 72.1L35.5199 72.36C35.9351 72.7764 36.4284 73.1067 36.9715 73.3321C37.5147 73.5575 38.0969 73.6735 38.6849 73.6735C39.2729 73.6735 39.8552 73.5575 40.3983 73.3321C40.9414 73.1067 41.4347 72.7764 41.8499 72.36L45.4899 68.77C60.8188 70.6 76.311 70.6 91.6399 68.77L95.1999 72.33C95.6143 72.7461 96.1067 73.0762 96.649 73.3014C97.1913 73.5267 97.7727 73.6426 98.3599 73.6426C98.9471 73.6426 99.5285 73.5267 100.071 73.3014C100.613 73.0762 101.106 72.7461 101.52 72.33L101.78 72.07C102.196 71.6556 102.526 71.1632 102.751 70.6209C102.977 70.0786 103.093 69.4972 103.093 68.91C103.093 68.3228 102.977 67.7414 102.751 67.1991C102.526 66.6569 102.196 66.1644 101.78 65.75L98.2499 62.3Z" stroke="#F69946" stroke-width="1.5" stroke-linecap="round" stroke-linejoin="round"/>
</g>
<defs>
<clipPath id="clip0_716_395">
<rect width="137.01" height="86.84" fill="white"/>
</clipPath>
</defs>
</svg>
