<svg width="146" height="56" viewBox="0 0 146 56" fill="none" xmlns="http://www.w3.org/2000/svg">
<g clip-path="url(#clip0_723_227)">
<path d="M19.907 17.2539C22.4617 19.5422 22.9058 22.9801 20.9027 24.938C18.8996 26.896 15.2026 26.6281 12.6479 24.3398C10.0932 22.0515 9.64909 18.6136 11.6522 16.6557C13.6553 14.6977 17.3523 14.9656 19.907 17.2539ZM14.3409 29.1617C16.8658 30.5751 17.8488 33.2531 16.5383 35.1334C15.2278 37.0136 12.1178 37.3938 9.60031 35.9765C7.08277 34.5592 6.08506 31.8889 7.39557 30.0087C8.70608 28.1284 11.816 27.7483 14.3335 29.1656L14.3409 29.1617ZM19.1472 43.8053C18.0477 32.4016 23.6339 26.4036 26.6701 24.7986C29.7063 23.1936 37.8087 21.9554 46.6127 29.2864C47.2173 29.7895 47.6994 30.4168 48.0639 31.1063L48.1199 31.2123C49.0241 32.9227 48.22 35.1205 46.3233 36.1231C45.4779 36.57 44.5908 36.9203 43.6766 37.166L36.4362 39.1274C35.1783 39.4701 34.002 40.0919 33.0104 40.9384L27.312 45.8167C26.5941 46.4337 25.8051 46.9696 24.9596 47.4165C23.0629 48.4191 20.794 47.8458 19.8899 46.1354L19.8338 46.0294C19.4693 45.3399 19.2225 44.5883 19.1472 43.8053ZM40.9161 22.2467C38.6243 22.2707 36.965 19.9502 37.219 17.0677C37.473 14.1853 39.5312 11.8335 41.823 11.8095C44.1148 11.7855 45.7741 14.106 45.5201 16.9884C45.2661 19.8708 43.2079 22.2227 40.9161 22.2467ZM29.4453 20.4222C26.6992 20.9748 24.1085 18.6716 23.6563 15.2719C23.2042 11.8722 25.0649 8.66628 27.8109 8.11374C30.557 7.56121 33.1477 9.86434 33.5999 13.2641C34.052 16.6638 32.1913 19.8697 29.4453 20.4222Z" fill="#F69946"/>
</g>
<path d="M46.112 31.272C46.112 28.776 46.008 26.576 45.8 24.672C45.8 24.176 46.008 23.744 46.424 23.376C46.84 23.008 47.392 22.728 48.08 22.536C49.456 22.184 50.968 22.008 52.616 22.008C54.744 22.008 56.416 22.48 57.632 23.424C58.864 24.352 59.48 25.784 59.48 27.72C59.48 29.656 58.696 31.208 57.128 32.376C55.56 33.544 53.648 34.128 51.392 34.128C50.24 34.128 49.032 33.888 47.768 33.408C47.688 34.176 47.648 35.216 47.648 36.528L47.672 37.704C47.672 38.088 47.664 38.488 47.648 38.904C47.568 39.016 47.48 39.096 47.384 39.144C47.288 39.192 47.216 39.224 47.168 39.24C47.136 39.272 47.08 39.296 47 39.312C46.92 39.328 46.864 39.336 46.832 39.336C46.736 39.368 46.624 39.384 46.496 39.384L46.088 39.384C46.056 38.184 46.04 37.104 46.04 36.144L46.112 31.272ZM47.72 31.68C48.888 32.464 50.288 32.856 51.92 32.856C53.552 32.84 54.928 32.336 56.048 31.344C57.168 30.336 57.728 29.104 57.728 27.648C57.728 26.192 57.152 25.104 56 24.384C54.848 23.664 53.464 23.304 51.848 23.304C50.248 23.304 48.832 23.672 47.6 24.408C47.68 25.448 47.72 27.872 47.72 31.68ZM68.7031 32.088L68.5831 34.848C68.5831 36.24 68.7431 37.176 69.0631 37.656C69.2551 37.976 69.5191 38.136 69.8551 38.136C69.9511 38.136 70.0871 38.112 70.2631 38.064C70.5991 37.968 70.8791 38.016 71.1031 38.208C70.9911 38.768 70.4311 39.048 69.4231 39.048C68.7351 39.048 68.2791 38.76 68.0551 38.184C67.8791 37.752 67.7511 37.216 67.6711 36.576C67.5911 35.92 67.5271 35.472 67.4791 35.232C66.4391 37.216 65.4311 38.424 64.4551 38.856C63.9591 39.08 63.3831 39.192 62.7271 39.192C62.0711 39.192 61.5591 38.88 61.1911 38.256C60.8391 37.616 60.6631 36.688 60.6631 35.472C60.6631 34.256 60.8631 32.984 61.2631 31.656C61.6631 30.312 62.2471 29.184 63.0151 28.272C63.7831 27.344 64.6231 26.88 65.5351 26.88C66.8471 26.88 67.7191 27.424 68.1511 28.512C68.5191 29.44 68.7031 30.632 68.7031 32.088ZM62.8231 31.32C62.5991 32.184 62.4311 33.008 62.3191 33.792C62.2071 34.56 62.1511 35.248 62.1511 35.856C62.1511 36.448 62.2711 36.96 62.5111 37.392C62.7671 37.824 63.0951 38.04 63.4951 38.04C64.3591 38.04 65.1911 37.224 65.9911 35.592C66.7911 33.96 67.1911 32.44 67.1911 31.032C67.1911 30.12 66.9511 29.368 66.4711 28.776C66.1511 28.392 65.7271 28.2 65.1991 28.2C64.6871 28.2 64.2151 28.504 63.7831 29.112C63.3671 29.704 63.0471 30.44 62.8231 31.32ZM78.3564 36.216C78.1004 36.952 77.6044 37.576 76.8684 38.088C76.1484 38.6 75.3564 38.856 74.4924 38.856C73.6444 38.856 72.9804 38.432 72.5004 37.584C72.0364 36.72 71.8044 35.528 71.8044 34.008C71.8044 29.72 72.4364 27.576 73.7004 27.576C73.8604 27.576 74.0604 27.6 74.3004 27.648C74.2524 27.904 74.1404 28.392 73.9644 29.112C73.6124 30.52 73.4364 31.76 73.4364 32.832C73.4364 33.904 73.5884 35.04 73.8924 36.24C74.1964 37.424 74.6284 38.016 75.1884 38.016C75.4764 38.016 75.7564 37.832 76.0284 37.464C76.3004 37.096 76.5164 36.712 76.6764 36.312C76.8364 35.896 77.0044 35.424 77.1804 34.896C77.3564 34.368 77.4684 34.048 77.5164 33.936C77.2764 33.008 77.1564 32.064 77.1564 31.104C77.1564 31.056 77.1564 30.912 77.1564 30.672C77.1564 30.416 77.1644 30.168 77.1804 29.928C77.1964 29.688 77.2444 29.4 77.3244 29.064C77.4844 28.392 77.9164 28.056 78.6204 28.056C79.2124 28.056 79.5084 28.952 79.5084 30.744C79.5084 31.064 79.4604 31.528 79.3644 32.136C79.2844 32.744 79.2444 33.168 79.2444 33.408C79.2444 34.144 79.5964 35.096 80.3004 36.264C81.0044 37.432 81.6604 38.016 82.2684 38.016C82.8924 38.016 83.3484 37.664 83.6364 36.96C83.9244 36.256 84.0684 35.472 84.0684 34.608C84.0684 33.616 83.9804 32.864 83.8044 32.352C83.6444 31.824 83.5404 31.48 83.4924 31.32C83.4604 31.16 83.3564 30.912 83.1804 30.576C83.0204 30.224 82.9164 30 82.8684 29.904C82.8364 29.808 82.7164 29.576 82.5084 29.208C82.3004 28.84 82.1804 28.632 82.1484 28.584C81.6844 27.768 81.4124 27.32 81.3324 27.24C81.7324 26.904 82.1004 26.736 82.4364 26.736C83.4124 27.44 84.1884 28.592 84.7644 30.192C85.3404 31.776 85.6284 33.224 85.6284 34.536C85.6284 35.832 85.3484 36.856 84.7884 37.608C84.2444 38.344 83.3884 38.712 82.2204 38.712C81.4044 38.712 80.6284 38.488 79.8924 38.04C79.1724 37.576 78.6604 36.968 78.3564 36.216ZM88.0494 28.944C87.3294 28.944 86.8414 28.768 86.5854 28.416C86.5854 28.16 86.6894 27.96 86.8974 27.816C87.1214 27.672 87.3614 27.584 87.6174 27.552C87.8734 27.504 88.2894 27.464 88.8654 27.432C88.9134 27 88.9374 26.448 88.9374 25.776C88.9534 25.088 88.9694 24.504 88.9854 24.024C89.0334 22.76 89.2254 21.984 89.5614 21.696C89.7054 21.568 89.8574 21.504 90.0174 21.504C90.1934 21.504 90.3454 21.52 90.4734 21.552C90.5214 22.704 90.5454 23.4 90.5454 23.64L90.4014 27.24C90.4334 27.256 90.5214 27.264 90.6654 27.264L92.3934 27.192C93.6414 27.192 94.2654 27.384 94.2654 27.768C94.2654 28.312 94.0414 28.632 93.5934 28.728C93.3854 28.776 93.1374 28.8 92.8494 28.8C92.5774 28.8 92.2174 28.768 91.7694 28.704C91.3374 28.624 91.0254 28.584 90.8334 28.584C90.6414 28.584 90.5134 28.592 90.4494 28.608C90.4014 29.072 90.3774 29.536 90.3774 30C90.3774 30.448 90.3854 31.016 90.4014 31.704C90.4334 32.376 90.4974 33.184 90.5934 34.128C90.7054 35.072 90.9374 35.888 91.2894 36.576C91.6414 37.248 92.0894 37.584 92.6334 37.584C92.9054 37.584 93.2254 37.48 93.5934 37.272C93.9614 37.048 94.2414 36.936 94.4334 36.936C94.6414 36.936 94.8174 36.984 94.9614 37.08C95.1214 37.16 95.2014 37.256 95.2014 37.368C95.2014 37.704 94.8574 38.032 94.1694 38.352C93.4974 38.656 92.9214 38.808 92.4414 38.808C90.6814 38.808 89.5854 37.144 89.1534 33.816C89.0254 32.856 88.9294 31.208 88.8654 28.872C88.6094 28.92 88.3374 28.944 88.0494 28.944ZM97.4429 29.04C98.2589 27.792 99.4349 27.168 100.971 27.168C102.507 27.168 103.731 27.792 104.643 29.04C105.571 30.288 106.035 31.712 106.035 33.312C106.035 34.896 105.531 36.24 104.523 37.344C103.515 38.448 102.235 39 100.683 39C99.1309 39 98.0029 38.568 97.2989 37.704C96.5949 36.824 96.2429 35.592 96.2429 34.008C96.2429 31.944 96.6429 30.288 97.4429 29.04ZM98.4989 30.312C98.2909 30.936 98.1309 31.56 98.0189 32.184C97.9229 32.808 97.8749 33.392 97.8749 33.936C97.8749 34.464 97.9149 34.952 97.9949 35.4C98.0749 35.832 98.2109 36.264 98.4029 36.696C98.5949 37.112 98.8829 37.448 99.2669 37.704C99.6509 37.944 100.107 38.064 100.635 38.064C101.707 38.064 102.603 37.624 103.323 36.744C104.059 35.864 104.427 34.8 104.427 33.552C104.427 32.304 104.091 31.096 103.419 29.928C102.763 28.744 101.955 28.152 100.995 28.152C100.419 28.152 99.9149 28.352 99.4829 28.752C99.0509 29.152 98.7229 29.672 98.4989 30.312ZM108.681 21.744C108.873 21.392 109.225 21.216 109.737 21.216C109.849 21.216 109.961 21.232 110.073 21.264C110.105 22.112 110.121 24.48 110.121 28.368C110.137 28.352 110.209 28.28 110.337 28.152C110.481 28.024 110.569 27.944 110.601 27.912C110.633 27.88 110.713 27.808 110.841 27.696C110.969 27.568 111.065 27.488 111.129 27.456C111.209 27.408 111.313 27.344 111.441 27.264C111.569 27.168 111.681 27.104 111.777 27.072C111.873 27.024 111.985 26.976 112.113 26.928C112.353 26.848 112.633 26.808 112.953 26.808C114.137 26.808 115.089 27.304 115.809 28.296C116.529 29.272 116.889 30.368 116.889 31.584C116.889 32.8 116.705 33.96 116.337 35.064C115.969 36.152 115.401 37.104 114.633 37.92C113.865 38.736 112.969 39.144 111.945 39.144C110.937 39.144 110.089 38.768 109.401 38.016C108.729 37.264 108.393 36.408 108.393 35.448C108.393 34.472 108.449 32.68 108.561 30.072C108.673 27.448 108.729 25.568 108.729 24.432C108.729 23.28 108.713 22.384 108.681 21.744ZM112.113 37.968C112.737 37.968 113.297 37.672 113.793 37.08C114.801 35.912 115.305 34.256 115.305 32.112C115.305 30.96 115.081 29.944 114.633 29.064C114.185 28.168 113.553 27.72 112.737 27.72C112.273 27.72 111.865 27.952 111.513 28.416C111.161 28.864 110.889 29.464 110.697 30.216C110.329 31.64 110.145 33.224 110.145 34.968C110.145 36.44 110.449 37.344 111.057 37.68C111.329 37.84 111.681 37.936 112.113 37.968ZM119.532 21.744C119.724 21.392 120.076 21.216 120.588 21.216C120.7 21.216 120.812 21.232 120.924 21.264C120.956 22.112 120.972 24.48 120.972 28.368C120.988 28.352 121.06 28.28 121.188 28.152C121.332 28.024 121.42 27.944 121.452 27.912C121.484 27.88 121.564 27.808 121.692 27.696C121.82 27.568 121.916 27.488 121.98 27.456C122.06 27.408 122.164 27.344 122.292 27.264C122.42 27.168 122.532 27.104 122.628 27.072C122.724 27.024 122.836 26.976 122.964 26.928C123.204 26.848 123.484 26.808 123.804 26.808C124.988 26.808 125.94 27.304 126.66 28.296C127.38 29.272 127.74 30.368 127.74 31.584C127.74 32.8 127.556 33.96 127.188 35.064C126.82 36.152 126.252 37.104 125.484 37.92C124.716 38.736 123.82 39.144 122.796 39.144C121.788 39.144 120.94 38.768 120.252 38.016C119.58 37.264 119.244 36.408 119.244 35.448C119.244 34.472 119.3 32.68 119.412 30.072C119.524 27.448 119.58 25.568 119.58 24.432C119.58 23.28 119.564 22.384 119.532 21.744ZM122.964 37.968C123.588 37.968 124.148 37.672 124.644 37.08C125.652 35.912 126.156 34.256 126.156 32.112C126.156 30.96 125.932 29.944 125.484 29.064C125.036 28.168 124.404 27.72 123.588 27.72C123.124 27.72 122.716 27.952 122.364 28.416C122.012 28.864 121.74 29.464 121.548 30.216C121.18 31.64 120.996 33.224 120.996 34.968C120.996 36.44 121.3 37.344 121.908 37.68C122.18 37.84 122.532 37.936 122.964 37.968ZM135.832 28.92C135.832 27.768 136.2 27.192 136.936 27.192C137.08 27.192 137.224 27.208 137.368 27.24C137.368 27.432 137.368 27.952 137.368 28.8C137.368 29.648 137.48 31.344 137.704 33.888C137.928 36.432 138.04 38.336 138.04 39.6C138.04 41.616 137.688 43.008 136.984 43.776C136.28 44.544 135.08 44.928 133.384 44.928C131.704 44.928 130.12 44.384 128.632 43.296C128.92 42.944 129.296 42.768 129.76 42.768C129.936 42.784 130.216 42.904 130.6 43.128C131.736 43.8 132.68 44.136 133.432 44.136C134.552 44.136 135.344 43.784 135.808 43.08C136.272 42.376 136.504 41.192 136.504 39.528C136.504 39.128 136.464 37.688 136.384 35.208C136.368 35.256 136.312 35.464 136.216 35.832C136.12 36.184 136.048 36.416 136 36.528C135.952 36.64 135.864 36.848 135.736 37.152C135.624 37.456 135.504 37.672 135.376 37.8C135.248 37.928 135.08 38.08 134.872 38.256C134.52 38.576 134.072 38.736 133.528 38.736C133 38.736 132.576 38.664 132.256 38.52C131.936 38.376 131.664 38.152 131.44 37.848C131.232 37.544 131.04 37.224 130.864 36.888C130.704 36.552 130.576 36.128 130.48 35.616C130.384 35.088 130.304 34.608 130.24 34.176C130.192 33.744 130.152 33.216 130.12 32.592C130.104 31.968 130.088 31.448 130.072 31.032C130.072 30.616 130.072 30.088 130.072 29.448L130.072 28.008C130.232 27.736 130.52 27.6 130.936 27.6C131.512 27.6 131.8 27.808 131.8 28.224L131.656 30.552C131.656 32.584 131.872 34.336 132.304 35.808C132.736 37.28 133.184 38.016 133.648 38.016C134 38.016 134.312 37.824 134.584 37.44C134.856 37.056 135.064 36.52 135.208 35.832C135.352 35.128 135.472 34.464 135.568 33.84C135.664 33.216 135.728 32.488 135.76 31.656C135.808 30.392 135.832 29.48 135.832 28.92Z" fill="black"/>
<path d="M46.904 44.904C47.014 44.904 47.1313 44.915 47.256 44.937C47.388 44.959 47.5017 44.9994 47.597 45.058C47.6923 45.1094 47.74 45.19 47.74 45.3C47.74 45.3807 47.7107 45.454 47.652 45.52C47.5933 45.5787 47.5273 45.608 47.454 45.608C47.3807 45.608 47.289 45.5897 47.179 45.553C47.069 45.509 46.9517 45.487 46.827 45.487C46.673 45.487 46.541 45.5237 46.431 45.597C46.321 45.663 46.2367 45.762 46.178 45.894C46.1193 46.0187 46.09 46.1727 46.09 46.356V52.67C46.09 52.758 46.057 52.835 45.991 52.901C45.9323 52.967 45.8553 53 45.76 53C45.6647 53 45.584 52.967 45.518 52.901C45.4593 52.835 45.43 52.758 45.43 52.67V46.356C45.43 45.8867 45.5657 45.5274 45.837 45.278C46.1157 45.0287 46.4713 44.904 46.904 44.904ZM47.322 47.489C47.41 47.489 47.4833 47.5184 47.542 47.577C47.6007 47.6357 47.63 47.709 47.63 47.797C47.63 47.885 47.6007 47.9584 47.542 48.017C47.4833 48.0757 47.41 48.105 47.322 48.105H44.627C44.5463 48.105 44.473 48.0757 44.407 48.017C44.3483 47.951 44.319 47.8777 44.319 47.797C44.319 47.7017 44.3483 47.6284 44.407 47.577C44.473 47.5184 44.5463 47.489 44.627 47.489H47.322ZM53.6607 50.184C53.6607 50.7414 53.5397 51.2437 53.2977 51.691C53.0557 52.131 52.7257 52.4794 52.3077 52.736C51.8897 52.9854 51.413 53.11 50.8777 53.11C50.357 53.11 49.884 52.9854 49.4587 52.736C49.0407 52.4794 48.707 52.131 48.4577 51.691C48.2157 51.2437 48.0947 50.7414 48.0947 50.184C48.0947 49.6194 48.2157 49.117 48.4577 48.677C48.707 48.237 49.0407 47.8887 49.4587 47.632C49.884 47.3754 50.357 47.247 50.8777 47.247C51.413 47.247 51.8897 47.3754 52.3077 47.632C52.7257 47.8887 53.0557 48.237 53.2977 48.677C53.5397 49.117 53.6607 49.6194 53.6607 50.184ZM53.0007 50.184C53.0007 49.7367 52.909 49.3407 52.7257 48.996C52.5423 48.644 52.2893 48.369 51.9667 48.171C51.6513 47.9657 51.2883 47.863 50.8777 47.863C50.4817 47.863 50.1223 47.9657 49.7997 48.171C49.477 48.369 49.2203 48.644 49.0297 48.996C48.8463 49.3407 48.7547 49.7367 48.7547 50.184C48.7547 50.6314 48.8463 51.0274 49.0297 51.372C49.2203 51.7167 49.477 51.9917 49.7997 52.197C50.1223 52.395 50.4817 52.494 50.8777 52.494C51.2883 52.494 51.6513 52.395 51.9667 52.197C52.2893 51.9917 52.5423 51.7167 52.7257 51.372C52.909 51.0274 53.0007 50.6314 53.0007 50.184ZM55.3933 53C55.2907 53 55.21 52.967 55.1513 52.901C55.0927 52.835 55.0633 52.758 55.0633 52.67V47.742C55.0633 47.654 55.0927 47.577 55.1513 47.511C55.2173 47.445 55.298 47.412 55.3933 47.412C55.4887 47.412 55.5657 47.445 55.6243 47.511C55.6903 47.577 55.7233 47.654 55.7233 47.742V49.392L55.5583 49.425C55.5803 49.1684 55.6427 48.9154 55.7453 48.666C55.8553 48.4094 56.002 48.1747 56.1853 47.962C56.3687 47.7494 56.585 47.577 56.8343 47.445C57.091 47.313 57.377 47.247 57.6923 47.247C57.8243 47.247 57.9527 47.2764 58.0773 47.335C58.202 47.3864 58.2643 47.4744 58.2643 47.599C58.2643 47.709 58.235 47.7934 58.1763 47.852C58.1177 47.9107 58.048 47.94 57.9673 47.94C57.9013 47.94 57.828 47.9217 57.7473 47.885C57.674 47.8484 57.575 47.83 57.4503 47.83C57.245 47.83 57.0397 47.8924 56.8343 48.017C56.629 48.1344 56.442 48.2957 56.2733 48.501C56.1047 48.7064 55.969 48.9374 55.8663 49.194C55.771 49.4434 55.7233 49.6964 55.7233 49.953V52.67C55.7233 52.758 55.6903 52.835 55.6243 52.901C55.5583 52.967 55.4813 53 55.3933 53ZM66.9126 47.379C67.0079 47.379 67.0849 47.412 67.1436 47.478C67.2096 47.544 67.2426 47.6247 67.2426 47.72V52.67C67.2426 52.758 67.2096 52.835 67.1436 52.901C67.0776 52.967 67.0006 53 66.9126 53C66.8172 53 66.7366 52.967 66.6706 52.901C66.6119 52.835 66.5826 52.758 66.5826 52.67V51.361L66.7696 51.273C66.7696 51.4784 66.7109 51.6874 66.5936 51.9C66.4836 52.1127 66.3296 52.3107 66.1316 52.494C65.9336 52.6774 65.6989 52.8277 65.4276 52.945C65.1636 53.055 64.8776 53.11 64.5696 53.11C64.0709 53.11 63.6236 52.9817 63.2276 52.725C62.8389 52.4684 62.5309 52.1164 62.3036 51.669C62.0836 51.2217 61.9736 50.7194 61.9736 50.162C61.9736 49.59 62.0872 49.0877 62.3146 48.655C62.5419 48.215 62.8499 47.8704 63.2386 47.621C63.6272 47.3717 64.0672 47.247 64.5586 47.247C64.8739 47.247 65.1672 47.302 65.4386 47.412C65.7172 47.522 65.9592 47.6724 66.1646 47.863C66.3699 48.0537 66.5276 48.2737 66.6376 48.523C66.7549 48.765 66.8136 49.018 66.8136 49.282L66.5826 49.117V47.72C66.5826 47.6247 66.6119 47.544 66.6706 47.478C66.7366 47.412 66.8172 47.379 66.9126 47.379ZM64.6246 52.494C65.0132 52.494 65.3579 52.395 65.6586 52.197C65.9592 51.9917 66.1939 51.713 66.3626 51.361C66.5386 51.0017 66.6266 50.602 66.6266 50.162C66.6266 49.7294 66.5386 49.3407 66.3626 48.996C66.1939 48.6514 65.9592 48.3764 65.6586 48.171C65.3579 47.9657 65.0132 47.863 64.6246 47.863C64.2432 47.863 63.8986 47.962 63.5906 48.16C63.2899 48.358 63.0516 48.6294 62.8756 48.974C62.7069 49.3187 62.6226 49.7147 62.6226 50.162C62.6226 50.602 62.7069 51.0017 62.8756 51.361C63.0516 51.713 63.2899 51.9917 63.5906 52.197C63.8912 52.395 64.2359 52.494 64.6246 52.494ZM74.6553 47.335C75.1539 47.335 75.5939 47.4597 75.9753 47.709C76.3639 47.951 76.6719 48.2884 76.8993 48.721C77.1266 49.1464 77.2403 49.6377 77.2403 50.195C77.2403 50.7524 77.1266 51.2474 76.8993 51.68C76.6719 52.1127 76.3639 52.4537 75.9753 52.703C75.5866 52.9524 75.1503 53.077 74.6663 53.077C74.4096 53.077 74.1639 53.0404 73.9293 52.967C73.7019 52.8864 73.4929 52.78 73.3023 52.648C73.1116 52.516 72.9429 52.362 72.7963 52.186C72.6496 52.0027 72.5323 51.8047 72.4443 51.592L72.6423 51.449V54.87C72.6423 54.958 72.6093 55.035 72.5433 55.101C72.4846 55.167 72.4076 55.2 72.3123 55.2C72.2169 55.2 72.1363 55.167 72.0703 55.101C72.0116 55.035 71.9823 54.958 71.9823 54.87V47.698C71.9823 47.6027 72.0116 47.522 72.0703 47.456C72.1289 47.39 72.2096 47.357 72.3123 47.357C72.4076 47.357 72.4846 47.39 72.5433 47.456C72.6093 47.522 72.6423 47.6027 72.6423 47.698V48.886L72.4883 48.798C72.5616 48.5707 72.6679 48.369 72.8073 48.193C72.9539 48.0097 73.1226 47.8557 73.3133 47.731C73.5039 47.599 73.7129 47.5 73.9403 47.434C74.1676 47.368 74.4059 47.335 74.6553 47.335ZM74.6003 47.951C74.2043 47.951 73.8559 48.05 73.5553 48.248C73.2546 48.4387 73.0163 48.7027 72.8403 49.04C72.6716 49.37 72.5873 49.755 72.5873 50.195C72.5873 50.6277 72.6716 51.0164 72.8403 51.361C73.0163 51.7057 73.2546 51.977 73.5553 52.175C73.8559 52.3657 74.2043 52.461 74.6003 52.461C74.9889 52.461 75.3299 52.3657 75.6233 52.175C75.9239 51.977 76.1623 51.7057 76.3383 51.361C76.5143 51.0164 76.6023 50.6277 76.6023 50.195C76.6023 49.7624 76.5143 49.3774 76.3383 49.04C76.1623 48.7027 75.9239 48.4387 75.6233 48.248C75.3299 48.05 74.9889 47.951 74.6003 47.951ZM83.2622 47.379C83.3575 47.379 83.4345 47.412 83.4932 47.478C83.5592 47.544 83.5922 47.6247 83.5922 47.72V52.67C83.5922 52.758 83.5592 52.835 83.4932 52.901C83.4272 52.967 83.3502 53 83.2622 53C83.1668 53 83.0862 52.967 83.0202 52.901C82.9615 52.835 82.9322 52.758 82.9322 52.67V51.361L83.1192 51.273C83.1192 51.4784 83.0605 51.6874 82.9432 51.9C82.8332 52.1127 82.6792 52.3107 82.4812 52.494C82.2832 52.6774 82.0485 52.8277 81.7772 52.945C81.5132 53.055 81.2272 53.11 80.9192 53.11C80.4205 53.11 79.9732 52.9817 79.5772 52.725C79.1885 52.4684 78.8805 52.1164 78.6532 51.669C78.4332 51.2217 78.3232 50.7194 78.3232 50.162C78.3232 49.59 78.4368 49.0877 78.6642 48.655C78.8915 48.215 79.1995 47.8704 79.5882 47.621C79.9768 47.3717 80.4168 47.247 80.9082 47.247C81.2235 47.247 81.5168 47.302 81.7882 47.412C82.0668 47.522 82.3088 47.6724 82.5142 47.863C82.7195 48.0537 82.8772 48.2737 82.9872 48.523C83.1045 48.765 83.1632 49.018 83.1632 49.282L82.9322 49.117V47.72C82.9322 47.6247 82.9615 47.544 83.0202 47.478C83.0862 47.412 83.1668 47.379 83.2622 47.379ZM80.9742 52.494C81.3628 52.494 81.7075 52.395 82.0082 52.197C82.3088 51.9917 82.5435 51.713 82.7122 51.361C82.8882 51.0017 82.9762 50.602 82.9762 50.162C82.9762 49.7294 82.8882 49.3407 82.7122 48.996C82.5435 48.6514 82.3088 48.3764 82.0082 48.171C81.7075 47.9657 81.3628 47.863 80.9742 47.863C80.5928 47.863 80.2482 47.962 79.9402 48.16C79.6395 48.358 79.4012 48.6294 79.2252 48.974C79.0565 49.3187 78.9722 49.7147 78.9722 50.162C78.9722 50.602 79.0565 51.0017 79.2252 51.361C79.4012 51.713 79.6395 51.9917 79.9402 52.197C80.2408 52.395 80.5855 52.494 80.9742 52.494ZM91.9366 47.258C92.0173 47.258 92.0906 47.2874 92.1566 47.346C92.23 47.4047 92.2666 47.4854 92.2666 47.588C92.2666 47.61 92.263 47.6357 92.2556 47.665C92.2483 47.6944 92.241 47.7164 92.2336 47.731L90.5396 52.791C90.5103 52.857 90.4626 52.912 90.3966 52.956C90.338 52.9927 90.2756 53.0074 90.2096 53C90.0776 52.9927 89.9786 52.923 89.9126 52.791L88.3616 49.139L88.5596 49.183L87.1846 52.791C87.126 52.923 87.027 52.9927 86.8876 53C86.8216 53.0074 86.7556 52.9927 86.6896 52.956C86.6236 52.912 86.5796 52.857 86.5576 52.791L84.8196 47.731C84.7976 47.6797 84.7866 47.632 84.7866 47.588C84.7866 47.4927 84.816 47.4157 84.8746 47.357C84.9406 47.291 85.025 47.258 85.1276 47.258C85.1936 47.258 85.2523 47.2764 85.3036 47.313C85.3623 47.3497 85.4026 47.4047 85.4246 47.478L86.9866 52.164L86.7776 52.153L88.1966 48.578C88.2553 48.4387 88.358 48.369 88.5046 48.369C88.578 48.369 88.6403 48.3874 88.6916 48.424C88.743 48.4607 88.7833 48.512 88.8126 48.578L90.3196 52.164L90.0776 52.175L91.6286 47.478C91.6726 47.3314 91.7753 47.258 91.9366 47.258ZM93.1584 52.109C93.0997 52.021 93.0704 51.9367 93.0704 51.856C93.0777 51.768 93.1254 51.6984 93.2134 51.647C93.2721 51.5957 93.3381 51.5737 93.4114 51.581C93.4921 51.5884 93.5654 51.625 93.6314 51.691C93.8294 51.9477 94.0677 52.1567 94.3464 52.318C94.6324 52.472 94.9697 52.549 95.3584 52.549C95.5637 52.549 95.7654 52.516 95.9634 52.45C96.1687 52.3767 96.3374 52.2704 96.4694 52.131C96.6014 51.9844 96.6674 51.801 96.6674 51.581C96.6674 51.3537 96.6014 51.1704 96.4694 51.031C96.3374 50.8917 96.1651 50.7817 95.9524 50.701C95.7471 50.6204 95.5271 50.5507 95.2924 50.492C95.0431 50.426 94.8011 50.3527 94.5664 50.272C94.3317 50.184 94.1227 50.0777 93.9394 49.953C93.7634 49.821 93.6204 49.6634 93.5104 49.48C93.4004 49.2967 93.3454 49.073 93.3454 48.809C93.3454 48.501 93.4297 48.2297 93.5984 47.995C93.7671 47.7604 93.9944 47.577 94.2804 47.445C94.5737 47.313 94.9037 47.247 95.2704 47.247C95.4537 47.247 95.6517 47.2727 95.8644 47.324C96.0771 47.368 96.2861 47.445 96.4914 47.555C96.6967 47.665 96.8801 47.8154 97.0414 48.006C97.1074 48.072 97.1404 48.149 97.1404 48.237C97.1404 48.3177 97.1037 48.391 97.0304 48.457C96.9717 48.501 96.9021 48.523 96.8214 48.523C96.7481 48.523 96.6857 48.4937 96.6344 48.435C96.4584 48.237 96.2494 48.0867 96.0074 47.984C95.7654 47.8814 95.5051 47.83 95.2264 47.83C95.0137 47.83 94.8121 47.8667 94.6214 47.94C94.4381 48.006 94.2841 48.1087 94.1594 48.248C94.0347 48.3874 93.9724 48.5707 93.9724 48.798C93.9871 49.0107 94.0604 49.183 94.1924 49.315C94.3317 49.447 94.5114 49.557 94.7314 49.645C94.9587 49.733 95.2117 49.8137 95.4904 49.887C95.7251 49.9457 95.9487 50.0154 96.1614 50.096C96.3814 50.1767 96.5721 50.2794 96.7334 50.404C96.9021 50.5214 97.0341 50.6717 97.1294 50.855C97.2321 51.0384 97.2834 51.2694 97.2834 51.548C97.2834 51.8707 97.1917 52.1494 97.0084 52.384C96.8324 52.6187 96.5941 52.7984 96.2934 52.923C95.9927 53.0477 95.6591 53.11 95.2924 53.11C94.8964 53.11 94.5114 53.033 94.1374 52.879C93.7707 52.725 93.4444 52.4684 93.1584 52.109ZM103.87 50.184C103.87 50.7414 103.749 51.2437 103.507 51.691C103.265 52.131 102.935 52.4794 102.517 52.736C102.099 52.9854 101.622 53.11 101.087 53.11C100.566 53.11 100.093 52.9854 99.6676 52.736C99.2496 52.4794 98.916 52.131 98.6666 51.691C98.4246 51.2437 98.3036 50.7414 98.3036 50.184C98.3036 49.6194 98.4246 49.117 98.6666 48.677C98.916 48.237 99.2496 47.8887 99.6676 47.632C100.093 47.3754 100.566 47.247 101.087 47.247C101.622 47.247 102.099 47.3754 102.517 47.632C102.935 47.8887 103.265 48.237 103.507 48.677C103.749 49.117 103.87 49.6194 103.87 50.184ZM103.21 50.184C103.21 49.7367 103.118 49.3407 102.935 48.996C102.751 48.644 102.498 48.369 102.176 48.171C101.86 47.9657 101.497 47.863 101.087 47.863C100.691 47.863 100.331 47.9657 100.009 48.171C99.686 48.369 99.4293 48.644 99.2386 48.996C99.0553 49.3407 98.9636 49.7367 98.9636 50.184C98.9636 50.6314 99.0553 51.0274 99.2386 51.372C99.4293 51.7167 99.686 51.9917 100.009 52.197C100.331 52.395 100.691 52.494 101.087 52.494C101.497 52.494 101.86 52.395 102.176 52.197C102.498 51.9917 102.751 51.7167 102.935 51.372C103.118 51.0274 103.21 50.6314 103.21 50.184ZM107.802 47.335C108.257 47.335 108.646 47.456 108.968 47.698C109.291 47.9327 109.511 48.2847 109.628 48.754L109.474 48.798L109.54 48.6C109.636 48.38 109.793 48.1747 110.013 47.984C110.241 47.786 110.497 47.6284 110.783 47.511C111.069 47.3937 111.359 47.335 111.652 47.335C112.114 47.335 112.485 47.434 112.763 47.632C113.049 47.83 113.255 48.0977 113.379 48.435C113.511 48.765 113.577 49.139 113.577 49.557V52.67C113.577 52.758 113.544 52.835 113.478 52.901C113.42 52.967 113.343 53 113.247 53C113.152 53 113.071 52.967 113.005 52.901C112.947 52.835 112.917 52.758 112.917 52.67V49.59C112.917 49.2894 112.87 49.0144 112.774 48.765C112.679 48.5157 112.529 48.3177 112.323 48.171C112.118 48.0244 111.843 47.951 111.498 47.951C111.198 47.951 110.908 48.0244 110.629 48.171C110.358 48.3177 110.134 48.5157 109.958 48.765C109.79 49.0144 109.705 49.2894 109.705 49.59V52.67C109.705 52.758 109.672 52.835 109.606 52.901C109.548 52.967 109.471 53 109.375 53C109.28 53 109.199 52.967 109.133 52.901C109.075 52.835 109.045 52.758 109.045 52.67V49.557C109.045 49.2564 109.001 48.985 108.913 48.743C108.825 48.501 108.682 48.3104 108.484 48.171C108.286 48.0244 108.019 47.951 107.681 47.951C107.381 47.951 107.095 48.0244 106.823 48.171C106.559 48.3104 106.343 48.501 106.174 48.743C106.013 48.985 105.932 49.2564 105.932 49.557V52.67C105.932 52.758 105.899 52.835 105.833 52.901C105.767 52.967 105.69 53 105.602 53C105.5 53 105.419 52.967 105.36 52.901C105.302 52.835 105.272 52.758 105.272 52.67V47.742C105.272 47.654 105.302 47.577 105.36 47.511C105.426 47.445 105.507 47.412 105.602 47.412C105.698 47.412 105.775 47.445 105.833 47.511C105.899 47.577 105.932 47.654 105.932 47.742V48.765L105.635 49.172C105.657 48.952 105.727 48.732 105.844 48.512C105.969 48.292 106.13 48.094 106.328 47.918C106.526 47.742 106.75 47.6027 106.999 47.5C107.256 47.39 107.524 47.335 107.802 47.335ZM117.847 53.11C117.282 53.11 116.783 52.989 116.351 52.747C115.918 52.505 115.581 52.1677 115.339 51.735C115.097 51.3024 114.976 50.7964 114.976 50.217C114.976 49.5937 115.097 49.062 115.339 48.622C115.588 48.182 115.907 47.8447 116.296 47.61C116.692 47.368 117.11 47.247 117.55 47.247C117.872 47.247 118.184 47.3057 118.485 47.423C118.793 47.533 119.064 47.7017 119.299 47.929C119.541 48.149 119.731 48.4204 119.871 48.743C120.017 49.0657 120.098 49.4397 120.113 49.865C120.105 49.953 120.069 50.03 120.003 50.096C119.937 50.1547 119.86 50.184 119.772 50.184H115.361L115.229 49.59H119.563L119.42 49.722V49.502C119.39 49.1574 119.28 48.864 119.09 48.622C118.899 48.38 118.668 48.1967 118.397 48.072C118.125 47.9474 117.843 47.885 117.55 47.885C117.33 47.885 117.102 47.929 116.868 48.017C116.64 48.105 116.431 48.2444 116.241 48.435C116.057 48.6184 115.907 48.8567 115.79 49.15C115.672 49.436 115.614 49.777 115.614 50.173C115.614 50.6057 115.702 50.998 115.878 51.35C116.054 51.702 116.307 51.9807 116.637 52.186C116.974 52.3914 117.374 52.494 117.836 52.494C118.092 52.494 118.323 52.4574 118.529 52.384C118.734 52.3107 118.914 52.2154 119.068 52.098C119.222 51.9734 119.35 51.845 119.453 51.713C119.533 51.647 119.614 51.614 119.695 51.614C119.768 51.614 119.83 51.6434 119.882 51.702C119.94 51.7607 119.97 51.8267 119.97 51.9C119.97 51.988 119.933 52.065 119.86 52.131C119.64 52.395 119.354 52.626 119.002 52.824C118.65 53.0147 118.265 53.11 117.847 53.11ZM124.214 52.109C124.155 52.021 124.126 51.9367 124.126 51.856C124.133 51.768 124.181 51.6984 124.269 51.647C124.328 51.5957 124.394 51.5737 124.467 51.581C124.548 51.5884 124.621 51.625 124.687 51.691C124.885 51.9477 125.123 52.1567 125.402 52.318C125.688 52.472 126.025 52.549 126.414 52.549C126.619 52.549 126.821 52.516 127.019 52.45C127.224 52.3767 127.393 52.2704 127.525 52.131C127.657 51.9844 127.723 51.801 127.723 51.581C127.723 51.3537 127.657 51.1704 127.525 51.031C127.393 50.8917 127.221 50.7817 127.008 50.701C126.803 50.6204 126.583 50.5507 126.348 50.492C126.099 50.426 125.857 50.3527 125.622 50.272C125.387 50.184 125.178 50.0777 124.995 49.953C124.819 49.821 124.676 49.6634 124.566 49.48C124.456 49.2967 124.401 49.073 124.401 48.809C124.401 48.501 124.485 48.2297 124.654 47.995C124.823 47.7604 125.05 47.577 125.336 47.445C125.629 47.313 125.959 47.247 126.326 47.247C126.509 47.247 126.707 47.2727 126.92 47.324C127.133 47.368 127.342 47.445 127.547 47.555C127.752 47.665 127.936 47.8154 128.097 48.006C128.163 48.072 128.196 48.149 128.196 48.237C128.196 48.3177 128.159 48.391 128.086 48.457C128.027 48.501 127.958 48.523 127.877 48.523C127.804 48.523 127.741 48.4937 127.69 48.435C127.514 48.237 127.305 48.0867 127.063 47.984C126.821 47.8814 126.561 47.83 126.282 47.83C126.069 47.83 125.868 47.8667 125.677 47.94C125.494 48.006 125.34 48.1087 125.215 48.248C125.09 48.3874 125.028 48.5707 125.028 48.798C125.043 49.0107 125.116 49.183 125.248 49.315C125.387 49.447 125.567 49.557 125.787 49.645C126.014 49.733 126.267 49.8137 126.546 49.887C126.781 49.9457 127.004 50.0154 127.217 50.096C127.437 50.1767 127.628 50.2794 127.789 50.404C127.958 50.5214 128.09 50.6717 128.185 50.855C128.288 51.0384 128.339 51.2694 128.339 51.548C128.339 51.8707 128.247 52.1494 128.064 52.384C127.888 52.6187 127.65 52.7984 127.349 52.923C127.048 53.0477 126.715 53.11 126.348 53.11C125.952 53.11 125.567 53.033 125.193 52.879C124.826 52.725 124.5 52.4684 124.214 52.109ZM129.326 47.401H131.889C131.977 47.401 132.051 47.434 132.109 47.5C132.168 47.5587 132.197 47.632 132.197 47.72C132.197 47.8007 132.168 47.8704 132.109 47.929C132.051 47.9877 131.977 48.017 131.889 48.017H129.326C129.238 48.017 129.161 47.9877 129.095 47.929C129.037 47.863 129.007 47.7897 129.007 47.709C129.007 47.621 129.037 47.5477 129.095 47.489C129.161 47.4304 129.238 47.401 129.326 47.401ZM130.459 45.85C130.555 45.85 130.632 45.883 130.69 45.949C130.756 46.015 130.789 46.092 130.789 46.18V51.702C130.789 51.9074 130.815 52.0614 130.866 52.164C130.925 52.2667 130.998 52.3364 131.086 52.373C131.174 52.4024 131.262 52.417 131.35 52.417C131.409 52.417 131.46 52.4097 131.504 52.395C131.556 52.373 131.611 52.362 131.669 52.362C131.735 52.362 131.79 52.3877 131.834 52.439C131.886 52.4904 131.911 52.5564 131.911 52.637C131.911 52.7397 131.853 52.8277 131.735 52.901C131.618 52.967 131.479 53 131.317 53C131.251 53 131.152 52.9964 131.02 52.989C130.888 52.9744 130.753 52.934 130.613 52.868C130.474 52.7947 130.357 52.67 130.261 52.494C130.173 52.318 130.129 52.065 130.129 51.735V46.18C130.129 46.092 130.159 46.015 130.217 45.949C130.283 45.883 130.364 45.85 130.459 45.85ZM138.026 47.379C138.121 47.379 138.198 47.412 138.257 47.478C138.323 47.544 138.356 47.6247 138.356 47.72V52.67C138.356 52.758 138.323 52.835 138.257 52.901C138.191 52.967 138.114 53 138.026 53C137.931 53 137.85 52.967 137.784 52.901C137.725 52.835 137.696 52.758 137.696 52.67V51.361L137.883 51.273C137.883 51.4784 137.824 51.6874 137.707 51.9C137.597 52.1127 137.443 52.3107 137.245 52.494C137.047 52.6774 136.812 52.8277 136.541 52.945C136.277 53.055 135.991 53.11 135.683 53.11C135.184 53.11 134.737 52.9817 134.341 52.725C133.952 52.4684 133.644 52.1164 133.417 51.669C133.197 51.2217 133.087 50.7194 133.087 50.162C133.087 49.59 133.201 49.0877 133.428 48.655C133.655 48.215 133.963 47.8704 134.352 47.621C134.741 47.3717 135.181 47.247 135.672 47.247C135.987 47.247 136.281 47.302 136.552 47.412C136.831 47.522 137.073 47.6724 137.278 47.863C137.483 48.0537 137.641 48.2737 137.751 48.523C137.868 48.765 137.927 49.018 137.927 49.282L137.696 49.117V47.72C137.696 47.6247 137.725 47.544 137.784 47.478C137.85 47.412 137.931 47.379 138.026 47.379ZM135.738 52.494C136.127 52.494 136.471 52.395 136.772 52.197C137.073 51.9917 137.307 51.713 137.476 51.361C137.652 51.0017 137.74 50.602 137.74 50.162C137.74 49.7294 137.652 49.3407 137.476 48.996C137.307 48.6514 137.073 48.3764 136.772 48.171C136.471 47.9657 136.127 47.863 135.738 47.863C135.357 47.863 135.012 47.962 134.704 48.16C134.403 48.358 134.165 48.6294 133.989 48.974C133.82 49.3187 133.736 49.7147 133.736 50.162C133.736 50.602 133.82 51.0017 133.989 51.361C134.165 51.713 134.403 51.9917 134.704 52.197C135.005 52.395 135.349 52.494 135.738 52.494ZM144.279 47.28C144.374 47.28 144.451 47.313 144.51 47.379C144.576 47.445 144.609 47.522 144.609 47.61V52.461C144.609 53.055 144.491 53.5537 144.257 53.957C144.022 54.3677 143.707 54.6757 143.311 54.881C142.915 55.0937 142.464 55.2 141.958 55.2C141.642 55.2 141.349 55.1634 141.078 55.09C140.814 55.024 140.597 54.936 140.429 54.826C140.341 54.7747 140.275 54.7124 140.231 54.639C140.187 54.5657 140.183 54.4887 140.22 54.408C140.256 54.3054 140.311 54.2357 140.385 54.199C140.465 54.1697 140.546 54.1734 140.627 54.21C140.751 54.276 140.931 54.3567 141.166 54.452C141.4 54.5474 141.668 54.595 141.969 54.595C142.372 54.595 142.72 54.5107 143.014 54.342C143.314 54.1734 143.545 53.9277 143.707 53.605C143.868 53.2897 143.949 52.912 143.949 52.472V51.68L144.026 51.944C143.916 52.1714 143.758 52.373 143.553 52.549C143.355 52.725 143.124 52.8644 142.86 52.967C142.603 53.0624 142.328 53.11 142.035 53.11C141.595 53.11 141.228 53.022 140.935 52.846C140.649 52.6627 140.436 52.4134 140.297 52.098C140.157 51.7827 140.088 51.4124 140.088 50.987V47.61C140.088 47.522 140.117 47.445 140.176 47.379C140.234 47.313 140.315 47.28 140.418 47.28C140.513 47.28 140.59 47.313 140.649 47.379C140.715 47.445 140.748 47.522 140.748 47.61V50.888C140.748 51.4014 140.858 51.7974 141.078 52.076C141.305 52.3547 141.672 52.494 142.178 52.494C142.493 52.494 142.783 52.4207 143.047 52.274C143.311 52.12 143.527 51.922 143.696 51.68C143.864 51.4307 143.949 51.1667 143.949 50.888V47.61C143.949 47.522 143.978 47.445 144.037 47.379C144.103 47.313 144.183 47.28 144.279 47.28Z" fill="black"/>
<defs>
<clipPath id="clip0_723_227">
<rect width="42.5756" height="38.3932" fill="white" transform="translate(0 19.8975) rotate(-27.862)"/>
</clipPath>
</defs>
</svg>
