<svg width="139" height="125" viewBox="0 0 139 125" fill="none" xmlns="http://www.w3.org/2000/svg">
<g clip-path="url(#clip0_716_388)">
<path d="M98.1298 98.78C110.208 98.78 120 88.9885 120 76.91C120 64.8315 110.208 55.04 98.1298 55.04C86.0513 55.04 76.2598 64.8315 76.2598 76.91C76.2598 88.9885 86.0513 98.78 98.1298 98.78Z" stroke="#F69946" stroke-width="1.5" stroke-linecap="round" stroke-linejoin="round"/>
<path d="M59.7498 14.49C67.2526 21.234 74.0325 28.7412 79.9798 36.89C80.9098 38.13 81.6498 39.48 80.7298 41.04C79.5098 43.11 77.0798 43.36 75.2198 41.56C73.0098 39.44 70.8898 37.24 68.7298 35.08C67.5631 33.9 66.3898 32.73 65.2098 31.57C64.9354 31.283 64.6183 31.0401 64.2698 30.85C64.1598 30.8055 64.0407 30.7877 63.9225 30.7982C63.8043 30.8086 63.6903 30.8469 63.5898 30.91C63.5084 31.0246 63.452 31.1551 63.4245 31.2929C63.3969 31.4308 63.3987 31.5729 63.4298 31.71C63.708 32.138 64.0446 32.525 64.4298 32.86C67.2498 35.71 70.0698 38.57 72.9298 41.38C73.7398 42.17 74.3498 42.91 73.7898 44.12C73.587 44.6913 73.2233 45.1917 72.7424 45.5608C72.2615 45.9299 71.684 46.1519 71.0798 46.2C70.427 46.2913 69.7619 46.2295 69.1371 46.0195C68.5123 45.8095 67.9449 45.457 67.4798 44.99C65.0498 42.53 62.5398 40.16 60.0498 37.75C59.8398 37.54 58.3998 36.6 58.0998 36.92C57.7998 37.24 58.0998 37.92 58.3998 38.2C60.1198 39.96 61.8998 41.65 63.6598 43.36C64.3798 44.06 65.1398 44.72 65.8298 45.45C66.5198 46.18 67.3898 46.56 66.8298 47.7C66.2698 48.84 65.4798 49.83 63.9998 49.83C62.7345 49.8558 61.5048 49.4103 60.5498 48.58C58.6398 46.95 56.6998 45.37 54.7698 43.76C54.4998 43.54 52.9198 42.61 52.6298 42.95C52.3398 43.29 52.7498 43.95 53.0398 44.23C54.8798 45.85 56.7898 47.4 58.6698 48.99C59.9898 50.09 59.9398 50.26 58.4698 51.18C57.7826 51.653 56.988 51.9465 56.1583 52.0338C55.3287 52.1212 54.4904 51.9995 53.7198 51.68C51.7198 50.83 49.5098 50.13 47.8098 48.68C33.8898 37.09 32.8098 19.87 26.7098 21.22C25.7098 21.45 23.8998 16.72 24.7098 15.88C28.7998 11.62 32.8598 7.31 36.9298 2.99C37.5198 2.37 38.0998 1.74 38.6798 1.12C39.2598 0.5 39.6098 0.55 40.0798 1.12C41.6598 2.99 43.8098 3.99 46.0098 4.84C47.6298 5.5 58.4998 13.39 59.7498 14.49Z" stroke="#F69946" stroke-width="1.5" stroke-linecap="round" stroke-linejoin="round"/>
<path d="M41.1999 42.84C39.6105 44.9739 38.8428 47.6089 39.0375 50.2625C39.2322 52.9161 40.3761 55.4109 42.2599 57.29L64.6699 79.71C64.7918 81.251 65.0223 82.7815 65.3599 84.29" stroke="#F69946" stroke-width="1.5" stroke-linecap="round" stroke-linejoin="round"/>
<path d="M65.0298 19.33C67.1471 18.0822 69.619 17.573 72.0571 17.8826C74.4952 18.1921 76.7614 19.3027 78.4998 21.04L100.87 43.41L100.96 43.49C107.139 44.0131 113.051 46.2384 118.042 49.9187C123.032 53.599 126.905 58.5904 129.231 64.3387C131.556 70.087 132.243 76.3673 131.215 82.4823C130.187 88.5973 127.485 94.3078 123.407 98.9798C119.33 103.652 114.038 107.103 108.119 108.949C102.199 110.795 95.8836 110.965 89.8734 109.439C83.8633 107.913 78.3936 104.751 74.0716 100.305C69.7496 95.8583 66.7445 90.301 65.3898 84.25" stroke="#F69946" stroke-width="1.5" stroke-linecap="round" stroke-linejoin="round"/>
<path d="M70.6201 25.21C71.3136 25.1829 72.0052 25.3005 72.6509 25.5553C73.2965 25.8101 73.882 26.1965 74.3701 26.69L82.6501 34.99C83.6015 35.9425 84.1359 37.2337 84.1359 38.58C84.1359 39.9263 83.6015 41.2175 82.6501 42.17C82.6501 42.17 73.4601 47.17 71.0401 49.59C68.6201 52.01 63.3601 61.46 63.3601 61.46C62.4076 62.4114 61.1164 62.9458 59.7701 62.9458C58.4238 62.9458 57.1326 62.4114 56.1801 61.46L47.9001 53.18C47.2156 52.4945 46.741 51.6278 46.532 50.6819C46.323 49.736 46.3882 48.7501 46.7201 47.84" stroke="#F69946" stroke-width="1.5" stroke-linecap="round" stroke-linejoin="round"/>
<path d="M128.4 62.09C134.342 69.0685 137.521 77.9817 137.338 87.1452C137.154 96.3086 133.62 105.087 127.403 111.822C121.187 118.557 112.719 122.781 103.599 123.697C94.4798 124.612 85.341 122.155 77.91 116.79L76.6 115.99C70.9984 112.591 65.8535 108.491 61.29 103.79C54.1951 96.489 48.5458 87.9115 44.64 78.51C42.4669 73.1143 39.2794 68.1853 35.25 63.99C24.11 52.76 12.11 46.3 4.46001 54.23C-4.11999 63.11 3.22001 76.17 15.8 84.56C29.41 93.63 66.8 92.71 69.61 94.79" stroke="#F69946" stroke-width="1.5" stroke-linecap="round" stroke-linejoin="round"/>
</g>
<defs>
<clipPath id="clip0_716_388">
<rect width="138.1" height="124.74" fill="white"/>
</clipPath>
</defs>
</svg>
