<svg width="1440" height="472" viewBox="0 0 1440 472" fill="none" xmlns="http://www.w3.org/2000/svg">
<rect y="-267" width="1440" height="640" fill="#FFFAF5"/>
<ellipse cx="744" cy="308" rx="835" ry="164" fill="#FFFAF5"/>
<g clip-path="url(#clip0_707_381)">
<path d="M789.148 410.263C787.509 409.295 786.536 407.637 786.972 406.556C787.409 405.476 789.092 405.385 790.731 406.352C792.371 407.32 793.343 408.978 792.907 410.059C792.471 411.139 790.787 411.231 789.148 410.263ZM788.897 404.091C787.469 403.55 786.432 402.297 786.581 401.296C786.731 400.295 788.01 399.922 789.436 400.465C790.862 401.008 791.904 402.257 791.754 403.257C791.604 404.258 790.325 404.631 788.9 404.088L788.897 404.091ZM783.474 397.203C786.537 402.726 785.442 406.003 784.472 406.972C783.503 407.942 780.226 409.037 774.703 405.974C774.323 405.764 773.97 405.485 773.654 405.169L773.605 405.121C772.821 404.337 772.677 403.211 773.283 402.605C773.553 402.335 773.863 402.11 774.209 401.935L776.943 400.537C777.418 400.293 777.793 399.918 778.037 399.443L779.435 396.709C779.61 396.363 779.835 396.053 780.105 395.783C780.711 395.177 781.837 395.321 782.621 396.105L782.669 396.154C782.985 396.47 783.264 396.823 783.474 397.203ZM778.796 409.081C779.797 408.932 781.05 409.969 781.591 411.397C782.131 412.825 781.76 414.102 780.76 414.252C779.759 414.402 778.505 413.364 777.965 411.936C777.424 410.508 777.795 409.231 778.796 409.081ZM784.244 409.285C785.325 408.848 786.983 409.821 787.951 411.46C788.918 413.1 788.827 414.783 787.747 415.219C786.666 415.656 785.008 414.683 784.04 413.044C783.072 411.404 783.164 409.721 784.244 409.285Z" fill="#F7F1EC"/>
</g>
<g clip-path="url(#clip1_707_381)">
<path d="M970.393 245.36C971.03 243.566 972.472 242.295 973.616 242.517C974.76 242.739 975.171 244.374 974.533 246.168C973.896 247.961 972.454 249.233 971.31 249.011C970.166 248.789 969.755 247.153 970.393 245.36ZM976.403 243.936C976.662 242.431 977.694 241.173 978.705 241.129C979.716 241.085 980.327 242.27 980.066 243.773C979.805 245.276 978.778 246.537 977.767 246.581C976.756 246.625 976.145 245.441 976.406 243.937L976.403 243.936ZM982.13 237.298C977.293 241.358 973.867 240.909 972.731 240.142C971.594 239.375 969.894 236.368 971.846 230.361C971.98 229.949 972.186 229.549 972.436 229.178L972.475 229.121C973.094 228.202 974.172 227.846 974.882 228.325C975.199 228.538 975.479 228.8 975.717 229.105L977.611 231.523C977.941 231.943 978.381 232.24 978.894 232.388L981.845 233.238C982.217 233.345 982.565 233.507 982.881 233.72C983.592 234.199 983.665 235.332 983.045 236.251L983.006 236.308C982.756 236.678 982.462 237.019 982.13 237.298ZM969.577 234.972C969.915 235.926 969.136 237.354 967.837 238.158C966.538 238.961 965.214 238.84 964.876 237.886C964.538 236.933 965.317 235.504 966.616 234.701C967.915 233.898 969.239 234.019 969.577 234.972ZM970.417 240.359C971.052 241.336 970.413 243.15 968.989 244.413C967.564 245.675 965.894 245.907 965.26 244.93C964.625 243.952 965.264 242.139 966.688 240.876C968.113 239.613 969.783 239.382 970.417 240.359Z" fill="#F7F1EC"/>
</g>
<circle cx="1331" cy="240" r="10" fill="#F7F1EC"/>
<circle cx="709" cy="370" r="8" fill="#F7F1EC"/>
<path d="M1179.78 224.832C1181.14 224.832 1182.24 223.143 1182.24 221.066C1182.24 218.99 1181.14 217.3 1179.78 217.3C1178.42 217.3 1177.32 218.99 1177.32 221.066C1177.32 223.143 1178.42 224.832 1179.78 224.832ZM1179.78 218.216C1180.68 218.216 1181.44 219.521 1181.44 221.066C1181.44 222.611 1180.68 223.916 1179.78 223.916C1178.88 223.916 1178.12 222.611 1178.12 221.066C1178.12 219.521 1178.88 218.216 1179.78 218.216Z" fill="#F7F1EC"/>
<path d="M1187.08 228.495C1187.03 228.417 1186.98 228.343 1186.96 228.279C1186.41 226.936 1184.9 225.353 1182.45 225.313L1182.36 225.313C1179.95 225.313 1178.45 226.813 1177.85 228.217C1177.83 228.264 1177.79 228.327 1177.74 228.392C1177.68 228.47 1177.63 228.549 1177.58 228.635C1177.07 229.533 1176.81 230.543 1176.85 231.48C1176.89 232.475 1177.26 233.274 1177.88 233.73C1178.13 233.914 1178.4 234.007 1178.69 234.007C1179.27 234.007 1179.81 233.63 1180.43 233.193C1180.83 232.916 1181.24 232.629 1181.69 232.414C1181.74 232.395 1181.95 232.366 1182.29 232.366C1182.7 232.366 1182.99 232.407 1183.05 232.432C1183.49 232.655 1183.88 232.947 1184.26 233.23C1184.84 233.663 1185.38 234.072 1185.97 234.072C1186.23 234.072 1186.47 233.996 1186.71 233.845C1187.99 233.016 1188.23 230.743 1187.25 228.776C1187.2 228.678 1187.14 228.586 1187.08 228.495ZM1186.31 233.049C1186.2 233.122 1186.09 233.156 1185.97 233.156C1185.62 233.156 1185.2 232.836 1184.7 232.465C1184.32 232.176 1183.88 231.848 1183.38 231.594C1183.13 231.469 1182.59 231.45 1182.29 231.45C1181.86 231.45 1181.55 231.489 1181.39 231.565C1180.87 231.811 1180.41 232.131 1180.01 232.413C1179.49 232.776 1179.05 233.091 1178.69 233.091C1178.56 233.091 1178.44 233.049 1178.31 232.959C1177.92 232.668 1177.68 232.127 1177.66 231.437C1177.62 230.689 1177.84 229.869 1178.25 229.129C1178.29 229.075 1178.32 229.028 1178.36 228.979C1178.43 228.879 1178.51 228.765 1178.58 228.617C1179.07 227.462 1180.32 226.229 1182.36 226.229L1182.44 226.229C1184.52 226.263 1185.78 227.563 1186.23 228.667C1186.29 228.813 1186.37 228.934 1186.44 229.04C1186.48 229.101 1186.52 229.162 1186.55 229.229C1187.31 230.756 1187.2 232.47 1186.31 233.049Z" fill="#F7F1EC"/>
<path d="M1185.02 224.832C1186.37 224.832 1187.48 223.143 1187.48 221.066C1187.48 218.99 1186.37 217.3 1185.02 217.3C1183.66 217.3 1182.55 218.99 1182.55 221.066C1182.55 223.143 1183.66 224.832 1185.02 224.832ZM1185.02 218.216C1185.91 218.216 1186.67 219.521 1186.67 221.066C1186.67 222.611 1185.91 223.916 1185.02 223.916C1184.12 223.916 1183.36 222.611 1183.36 221.066C1183.36 219.521 1184.12 218.216 1185.02 218.216Z" fill="#F7F1EC"/>
<path d="M1189.06 222.898C1187.97 222.898 1187.12 224.185 1187.12 225.826C1187.12 227.468 1187.97 228.754 1189.06 228.754C1190.15 228.754 1191 227.468 1191 225.826C1191 224.185 1190.15 222.898 1189.06 222.898ZM1189.06 227.838C1188.44 227.838 1187.92 226.916 1187.92 225.826C1187.92 224.736 1188.44 223.814 1189.06 223.814C1189.68 223.814 1190.2 224.736 1190.2 225.826C1190.2 226.916 1189.68 227.838 1189.06 227.838Z" fill="#F7F1EC"/>
<path d="M1177.88 225.826C1177.88 224.185 1177.03 222.898 1175.94 222.898C1174.85 222.898 1174 224.185 1174 225.826C1174 227.468 1174.85 228.754 1175.94 228.754C1177.03 228.754 1177.88 227.468 1177.88 225.826ZM1175.94 227.838C1175.32 227.838 1174.8 226.916 1174.8 225.826C1174.8 224.736 1175.32 223.814 1175.94 223.814C1176.56 223.814 1177.08 224.736 1177.08 225.826C1177.08 226.916 1176.56 227.838 1175.94 227.838Z" fill="#F7F1EC"/>
<g clip-path="url(#clip2_707_381)">
<path d="M1326.76 113.352C1325.8 114.991 1324.14 115.964 1323.06 115.528C1321.98 115.092 1321.89 113.408 1322.85 111.769C1323.82 110.13 1325.48 109.157 1326.56 109.593C1327.64 110.029 1327.73 111.713 1326.76 113.352ZM1320.59 113.603C1320.05 115.031 1318.8 116.069 1317.8 115.919C1316.8 115.769 1316.42 114.49 1316.97 113.064C1317.51 111.638 1318.76 110.596 1319.76 110.746C1320.76 110.896 1321.13 112.175 1320.59 113.601L1320.59 113.603ZM1313.7 119.026C1319.23 115.963 1322.5 117.058 1323.47 118.028C1324.44 118.998 1325.54 122.274 1322.47 127.798C1322.26 128.177 1321.99 128.53 1321.67 128.846L1321.62 128.895C1320.84 129.679 1319.71 129.823 1319.11 129.218C1318.84 128.948 1318.61 128.637 1318.44 128.292L1317.04 125.557C1316.79 125.082 1316.42 124.707 1315.94 124.463L1313.21 123.065C1312.86 122.89 1312.55 122.665 1312.28 122.395C1311.68 121.789 1311.82 120.663 1312.61 119.879L1312.65 119.831C1312.97 119.515 1313.32 119.236 1313.7 119.026ZM1325.58 123.704C1325.43 122.704 1326.47 121.45 1327.9 120.909C1329.33 120.369 1330.6 120.74 1330.75 121.741C1330.9 122.741 1329.87 123.995 1328.44 124.535C1327.01 125.076 1325.73 124.705 1325.58 123.704ZM1325.79 118.256C1325.35 117.176 1326.32 115.517 1327.96 114.549C1329.6 113.582 1331.28 113.673 1331.72 114.754C1332.16 115.834 1331.18 117.492 1329.54 118.46C1327.91 119.428 1326.22 119.336 1325.79 118.256Z" fill="#F7F1EC"/>
</g>
<path d="M1125.52 56.9918C1126 58.8352 1125.51 60.6957 1124.44 61.1512C1123.37 61.6066 1122.11 60.4809 1121.64 58.6375C1121.16 56.7941 1121.65 54.9336 1122.72 54.4781C1123.79 54.0227 1125.05 55.1484 1125.52 56.9918ZM1121.33 61.5336C1121.96 62.9258 1121.81 64.5457 1120.99 65.1473C1120.18 65.7488 1119.01 65.1086 1118.39 63.7164C1117.76 62.3242 1117.91 60.7043 1118.72 60.1027C1119.54 59.5012 1120.71 60.1414 1121.33 61.5336H1121.33ZM1120.3 70.2391C1122.04 64.1676 1125.13 62.625 1126.5 62.625C1127.87 62.625 1130.96 64.1676 1132.7 70.2391C1132.82 70.6559 1132.87 71.1027 1132.87 71.5496V71.6184C1132.87 72.727 1132.18 73.625 1131.32 73.625C1130.94 73.625 1130.56 73.5648 1130.2 73.4445L1127.27 72.4992C1126.77 72.3359 1126.23 72.3359 1125.73 72.4992L1122.8 73.4445C1122.44 73.5648 1122.06 73.625 1121.68 73.625C1120.82 73.625 1120.12 72.727 1120.12 71.6184V71.5496C1120.12 71.1027 1120.18 70.6559 1120.3 70.2391ZM1132.01 65.1473C1131.19 64.5457 1131.04 62.9258 1131.67 61.5336C1132.29 60.1414 1133.46 59.5012 1134.27 60.1027C1135.09 60.7043 1135.24 62.3242 1134.61 63.7164C1133.98 65.1086 1132.82 65.7488 1132.01 65.1473ZM1128.3 61.1512C1127.22 60.6957 1126.74 58.8352 1127.21 56.9918C1127.69 55.1484 1128.94 54.0227 1130.02 54.4781C1131.09 54.9336 1131.57 56.7941 1131.1 58.6375C1130.62 60.4809 1129.37 61.6066 1128.3 61.1512Z" fill="#F7F1EC"/>
<path d="M827.78 39.8322C829.138 39.8322 830.243 38.1427 830.243 36.0661C830.243 33.9896 829.138 32.3001 827.78 32.3001C826.423 32.3001 825.318 33.9896 825.318 36.0661C825.318 38.1427 826.422 39.8322 827.78 39.8322ZM827.78 33.2161C828.679 33.2161 829.439 34.5215 829.439 36.0661C829.439 37.6108 828.68 38.9162 827.78 38.9162C826.881 38.9162 826.122 37.6108 826.122 36.0661C826.122 34.5215 826.881 33.2161 827.78 33.2161Z" fill="#F7F1EC"/>
<path d="M835.084 43.495C835.033 43.4168 834.985 43.3429 834.959 43.2791C834.409 41.9363 832.899 40.3528 830.454 40.3134L830.36 40.3128C827.952 40.3128 826.454 41.8126 825.855 43.2165C825.834 43.2642 825.789 43.3268 825.741 43.3924C825.684 43.47 825.627 43.5487 825.579 43.6345C825.072 44.5325 824.814 45.5429 824.852 46.4797C824.893 47.4751 825.257 48.2741 825.88 48.7297C826.131 48.9141 826.402 49.0066 826.687 49.0066C827.274 49.0066 827.811 48.6301 828.433 48.1932C828.829 47.9163 829.238 47.6289 829.692 47.4143C829.743 47.3951 829.952 47.3661 830.293 47.3661C830.699 47.3661 830.989 47.407 831.052 47.432C831.495 47.6546 831.884 47.9474 832.261 48.2295C832.838 48.6625 833.383 49.072 833.975 49.072C834.228 49.072 834.475 48.9962 834.707 48.8454C835.987 48.0164 836.231 45.7426 835.251 43.7759C835.201 43.6776 835.142 43.5857 835.084 43.495ZM834.309 48.0494C834.196 48.1221 834.09 48.1563 833.974 48.1563C833.624 48.1563 833.197 47.836 832.703 47.465C832.317 47.1758 831.881 46.8482 831.377 46.5942C831.128 46.469 830.59 46.45 830.292 46.45C829.856 46.45 829.553 46.4891 829.392 46.5645C828.871 46.8113 828.415 47.1306 828.012 47.4131C827.494 47.7758 827.046 48.0906 826.687 48.0906C826.555 48.0906 826.437 48.0488 826.315 47.9587C825.917 47.6677 825.683 47.127 825.655 46.4369C825.625 45.6888 825.838 44.869 826.255 44.1295C826.285 44.0754 826.322 44.0275 826.357 43.9793C826.431 43.8791 826.514 43.7652 826.578 43.6165C827.071 42.462 828.323 41.2288 830.36 41.2288L830.443 41.2294C832.515 41.2627 833.779 42.5634 834.231 43.6666C834.291 43.8129 834.369 43.9338 834.438 44.04C834.477 44.1008 834.518 44.1622 834.552 44.229C835.313 45.7557 835.204 47.4696 834.309 48.0494Z" fill="#F7F1EC"/>
<path d="M833.015 39.8322C834.373 39.8322 835.478 38.1427 835.478 36.0661C835.478 33.9896 834.374 32.3001 833.015 32.3001C831.658 32.3001 830.553 33.9896 830.553 36.0661C830.553 38.1427 831.658 39.8322 833.015 39.8322ZM833.015 33.2161C833.914 33.2161 834.674 34.5215 834.674 36.0661C834.674 37.6108 833.915 38.9162 833.015 38.9162C832.116 38.9162 831.357 37.6108 831.357 36.0661C831.357 34.5215 832.116 33.2161 833.015 33.2161Z" fill="#F7F1EC"/>
<path d="M837.06 37.8982C835.972 37.8982 835.12 39.1845 835.12 40.8263C835.12 42.4675 835.972 43.7539 837.06 43.7539C838.148 43.7539 839 42.4675 839 40.8263C839 39.1845 838.148 37.8982 837.06 37.8982ZM837.06 42.8379C836.444 42.8379 835.923 41.9164 835.923 40.8263C835.923 39.7357 836.444 38.8142 837.06 38.8142C837.676 38.8142 838.196 39.7357 838.196 40.8263C838.196 41.9164 837.676 42.8379 837.06 42.8379Z" fill="#F7F1EC"/>
<path d="M825.88 40.8263C825.88 39.1845 825.028 37.8982 823.94 37.8982C822.852 37.8982 822 39.1845 822 40.8263C822 42.4675 822.852 43.7539 823.94 43.7539C825.028 43.7539 825.88 42.4675 825.88 40.8263ZM823.94 42.8379C823.324 42.8379 822.804 41.9164 822.804 40.8263C822.804 39.7357 823.324 38.8142 823.94 38.8142C824.556 38.8142 825.077 39.7357 825.077 40.8263C825.077 41.9164 824.556 42.8379 823.94 42.8379Z" fill="#F7F1EC"/>
<path d="M1321.52 322.992C1322 324.835 1321.51 326.696 1320.44 327.151C1319.37 327.607 1318.11 326.481 1317.64 324.638C1317.16 322.794 1317.65 320.934 1318.72 320.478C1319.79 320.023 1321.05 321.148 1321.52 322.992ZM1317.33 327.534C1317.96 328.926 1317.81 330.546 1316.99 331.147C1316.18 331.749 1315.01 331.109 1314.39 329.716C1313.76 328.324 1313.91 326.704 1314.72 326.103C1315.54 325.501 1316.71 326.141 1317.33 327.534H1317.33ZM1316.3 336.239C1318.04 330.168 1321.13 328.625 1322.5 328.625C1323.87 328.625 1326.96 330.168 1328.7 336.239C1328.82 336.656 1328.87 337.103 1328.87 337.55V337.618C1328.87 338.727 1328.18 339.625 1327.32 339.625C1326.94 339.625 1326.56 339.565 1326.2 339.445L1323.27 338.499C1322.77 338.336 1322.23 338.336 1321.73 338.499L1318.8 339.445C1318.44 339.565 1318.06 339.625 1317.68 339.625C1316.82 339.625 1316.12 338.727 1316.12 337.618V337.55C1316.12 337.103 1316.18 336.656 1316.3 336.239ZM1328.01 331.147C1327.19 330.546 1327.04 328.926 1327.67 327.534C1328.29 326.141 1329.46 325.501 1330.27 326.103C1331.09 326.704 1331.24 328.324 1330.61 329.716C1329.98 331.109 1328.82 331.749 1328.01 331.147ZM1324.3 327.151C1323.22 326.696 1322.74 324.835 1323.21 322.992C1323.69 321.148 1324.94 320.023 1326.02 320.478C1327.09 320.934 1327.57 322.794 1327.1 324.638C1326.62 326.481 1325.37 327.607 1324.3 327.151Z" fill="#F7F1EC"/>
<g clip-path="url(#clip3_707_381)">
<path d="M31.1473 58.4205C32.4801 59.7795 32.9906 61.6331 32.2896 62.5638C31.5885 63.4945 29.9387 63.1471 28.6058 61.7881C27.2729 60.4291 26.7625 58.5754 27.4635 57.6447C28.1646 56.7141 29.8144 57.0615 31.1473 58.4205ZM29.7922 64.4472C31.0318 65.3391 31.7094 66.8184 31.3057 67.7461C30.902 68.6738 29.5697 68.7037 28.3331 67.8102C27.0964 66.9166 26.4129 65.4407 26.8166 64.513C27.2204 63.5853 28.5526 63.5553 29.7893 64.4489L29.7922 64.4472ZM33.2478 72.5044C31.7188 66.3764 33.6246 63.4949 34.8121 62.8092C35.9997 62.1236 39.4481 61.9139 43.9906 66.302C44.3025 66.6032 44.5719 66.9637 44.7954 67.3507L44.8297 67.4102C45.384 68.3703 45.2321 69.495 44.4902 69.9233C44.1595 70.1142 43.8016 70.2514 43.4223 70.3315L40.4192 70.9737C39.8976 71.0863 39.4376 71.352 39.0793 71.7474L37.0215 74.027C36.7625 74.3154 36.4648 74.5568 36.1341 74.7477C35.3922 75.176 34.3422 74.7453 33.7879 73.7852L33.7535 73.7257C33.5301 73.3387 33.3527 72.9251 33.2478 72.5044ZM40.8408 62.241C39.8355 62.1268 38.8933 60.8003 38.7407 59.2808C38.588 57.7614 39.2772 56.6242 40.2825 56.7385C41.2878 56.8527 42.23 58.1792 42.3826 59.6986C42.5353 61.2181 41.8461 62.3553 40.8408 62.241ZM35.6309 60.6347C34.4743 60.7765 33.1243 59.4076 32.6138 57.5738C32.1033 55.74 32.6273 54.1375 33.7838 53.9957C34.9403 53.8539 36.2904 55.2228 36.8009 57.0566C37.3114 58.8904 36.7874 60.4929 35.6309 60.6347Z" fill="#F7F1EC"/>
</g>
<path d="M309.78 332.832C311.138 332.832 312.243 331.143 312.243 329.066C312.243 326.99 311.138 325.3 309.78 325.3C308.423 325.3 307.318 326.99 307.318 329.066C307.318 331.143 308.422 332.832 309.78 332.832ZM309.78 326.216C310.679 326.216 311.439 327.521 311.439 329.066C311.439 330.611 310.68 331.916 309.78 331.916C308.881 331.916 308.122 330.611 308.122 329.066C308.122 327.521 308.881 326.216 309.78 326.216Z" fill="#F7F1EC"/>
<path d="M317.084 336.495C317.033 336.417 316.985 336.343 316.959 336.279C316.409 334.936 314.899 333.353 312.454 333.313L312.36 333.313C309.952 333.313 308.454 334.813 307.855 336.217C307.834 336.264 307.789 336.327 307.741 336.392C307.684 336.47 307.627 336.549 307.579 336.635C307.072 337.533 306.814 338.543 306.852 339.48C306.893 340.475 307.257 341.274 307.88 341.73C308.131 341.914 308.402 342.007 308.687 342.007C309.274 342.007 309.811 341.63 310.433 341.193C310.829 340.916 311.238 340.629 311.692 340.414C311.743 340.395 311.952 340.366 312.293 340.366C312.699 340.366 312.989 340.407 313.052 340.432C313.495 340.655 313.884 340.947 314.261 341.23C314.838 341.663 315.383 342.072 315.975 342.072C316.228 342.072 316.475 341.996 316.707 341.845C317.987 341.016 318.231 338.743 317.251 336.776C317.201 336.678 317.142 336.586 317.084 336.495ZM316.309 341.049C316.196 341.122 316.09 341.156 315.974 341.156C315.624 341.156 315.197 340.836 314.703 340.465C314.317 340.176 313.881 339.848 313.377 339.594C313.128 339.469 312.59 339.45 312.292 339.45C311.856 339.45 311.553 339.489 311.392 339.565C310.871 339.811 310.415 340.131 310.012 340.413C309.494 340.776 309.046 341.091 308.687 341.091C308.555 341.091 308.437 341.049 308.315 340.959C307.917 340.668 307.683 340.127 307.655 339.437C307.625 338.689 307.838 337.869 308.255 337.129C308.285 337.075 308.322 337.028 308.357 336.979C308.431 336.879 308.514 336.765 308.578 336.617C309.071 335.462 310.323 334.229 312.36 334.229L312.443 334.229C314.515 334.263 315.779 335.563 316.231 336.667C316.291 336.813 316.369 336.934 316.438 337.04C316.477 337.101 316.518 337.162 316.552 337.229C317.313 338.756 317.204 340.47 316.309 341.049Z" fill="#F7F1EC"/>
<path d="M315.015 332.832C316.373 332.832 317.478 331.143 317.478 329.066C317.478 326.99 316.374 325.3 315.015 325.3C313.658 325.3 312.553 326.99 312.553 329.066C312.553 331.143 313.658 332.832 315.015 332.832ZM315.015 326.216C315.914 326.216 316.674 327.521 316.674 329.066C316.674 330.611 315.915 331.916 315.015 331.916C314.116 331.916 313.357 330.611 313.357 329.066C313.357 327.521 314.116 326.216 315.015 326.216Z" fill="#F7F1EC"/>
<path d="M319.06 330.898C317.972 330.898 317.12 332.185 317.12 333.826C317.12 335.468 317.972 336.754 319.06 336.754C320.148 336.754 321 335.468 321 333.826C321 332.185 320.148 330.898 319.06 330.898ZM319.06 335.838C318.444 335.838 317.923 334.916 317.923 333.826C317.923 332.736 318.444 331.814 319.06 331.814C319.676 331.814 320.196 332.736 320.196 333.826C320.196 334.916 319.676 335.838 319.06 335.838Z" fill="#F7F1EC"/>
<path d="M307.88 333.826C307.88 332.185 307.028 330.898 305.94 330.898C304.852 330.898 304 332.185 304 333.826C304 335.468 304.852 336.754 305.94 336.754C307.028 336.754 307.88 335.468 307.88 333.826ZM305.94 335.838C305.324 335.838 304.804 334.916 304.804 333.826C304.804 332.736 305.324 331.814 305.94 331.814C306.556 331.814 307.077 332.736 307.077 333.826C307.077 334.916 306.556 335.838 305.94 335.838Z" fill="#F7F1EC"/>
<g clip-path="url(#clip4_707_381)">
<path d="M209.865 200.067C209.553 198.189 210.198 196.378 211.306 196.018C212.414 195.657 213.566 196.888 213.878 198.766C214.191 200.644 213.546 202.455 212.438 202.815C211.329 203.176 210.177 201.945 209.865 200.067ZM214.432 195.907C213.928 194.466 214.221 192.865 215.084 192.337C215.947 191.809 217.055 192.548 217.556 193.989C218.056 195.431 217.77 197.032 216.907 197.56C216.044 198.089 214.936 197.349 214.435 195.908L214.432 195.907ZM216.222 187.325C213.96 193.222 210.746 194.489 209.38 194.37C208.014 194.25 205.069 192.444 203.865 186.244C203.782 185.818 203.768 185.369 203.807 184.924L203.813 184.855C203.91 183.751 204.679 182.916 205.533 182.991C205.913 183.024 206.285 183.117 206.642 183.269L209.47 184.466C209.962 184.673 210.491 184.719 211.011 184.601L214.005 183.913C214.382 183.826 214.765 183.799 215.145 183.832C215.998 183.907 216.611 184.862 216.515 185.966L216.509 186.035C216.47 186.48 216.378 186.92 216.222 187.325ZM204.116 191.377C204.874 192.047 204.885 193.675 204.138 195.007C203.392 196.339 202.175 196.875 201.417 196.205C200.659 195.535 200.648 193.908 201.395 192.576C202.141 191.243 203.358 190.707 204.116 191.377ZM207.462 195.681C208.491 196.229 208.812 198.124 208.178 199.919C207.544 201.714 206.196 202.726 205.167 202.179C204.139 201.632 203.818 199.736 204.451 197.941C205.085 196.146 206.434 195.134 207.462 195.681Z" fill="#F7F1EC"/>
</g>
<path d="M310.78 233.832C312.138 233.832 313.243 232.143 313.243 230.066C313.243 227.99 312.138 226.3 310.78 226.3C309.423 226.3 308.318 227.99 308.318 230.066C308.318 232.143 309.422 233.832 310.78 233.832ZM310.78 227.216C311.679 227.216 312.439 228.521 312.439 230.066C312.439 231.611 311.68 232.916 310.78 232.916C309.881 232.916 309.122 231.611 309.122 230.066C309.122 228.521 309.881 227.216 310.78 227.216Z" fill="#F7F1EC"/>
<path d="M318.084 237.495C318.033 237.417 317.985 237.343 317.959 237.279C317.409 235.936 315.899 234.353 313.454 234.313L313.36 234.313C310.952 234.313 309.454 235.813 308.855 237.217C308.834 237.264 308.789 237.327 308.741 237.392C308.684 237.47 308.627 237.549 308.579 237.635C308.072 238.533 307.814 239.543 307.852 240.48C307.893 241.475 308.257 242.274 308.88 242.73C309.131 242.914 309.402 243.007 309.687 243.007C310.274 243.007 310.811 242.63 311.433 242.193C311.829 241.916 312.238 241.629 312.692 241.414C312.743 241.395 312.952 241.366 313.293 241.366C313.699 241.366 313.989 241.407 314.052 241.432C314.495 241.655 314.884 241.947 315.261 242.23C315.838 242.663 316.383 243.072 316.975 243.072C317.228 243.072 317.475 242.996 317.707 242.845C318.987 242.016 319.231 239.743 318.251 237.776C318.201 237.678 318.142 237.586 318.084 237.495ZM317.309 242.049C317.196 242.122 317.09 242.156 316.974 242.156C316.624 242.156 316.197 241.836 315.703 241.465C315.317 241.176 314.881 240.848 314.377 240.594C314.128 240.469 313.59 240.45 313.292 240.45C312.856 240.45 312.553 240.489 312.392 240.565C311.871 240.811 311.415 241.131 311.012 241.413C310.494 241.776 310.046 242.091 309.687 242.091C309.555 242.091 309.437 242.049 309.315 241.959C308.917 241.668 308.683 241.127 308.655 240.437C308.625 239.689 308.838 238.869 309.255 238.129C309.285 238.075 309.322 238.028 309.357 237.979C309.431 237.879 309.514 237.765 309.578 237.617C310.071 236.462 311.323 235.229 313.36 235.229L313.443 235.229C315.515 235.263 316.779 236.563 317.231 237.667C317.291 237.813 317.369 237.934 317.438 238.04C317.477 238.101 317.518 238.162 317.552 238.229C318.313 239.756 318.204 241.47 317.309 242.049Z" fill="#F7F1EC"/>
<path d="M316.015 233.832C317.373 233.832 318.478 232.143 318.478 230.066C318.478 227.99 317.374 226.3 316.015 226.3C314.658 226.3 313.553 227.99 313.553 230.066C313.553 232.143 314.658 233.832 316.015 233.832ZM316.015 227.216C316.914 227.216 317.674 228.521 317.674 230.066C317.674 231.611 316.915 232.916 316.015 232.916C315.116 232.916 314.357 231.611 314.357 230.066C314.357 228.521 315.116 227.216 316.015 227.216Z" fill="#F7F1EC"/>
<path d="M320.06 231.898C318.972 231.898 318.12 233.185 318.12 234.826C318.12 236.468 318.972 237.754 320.06 237.754C321.148 237.754 322 236.468 322 234.826C322 233.185 321.148 231.898 320.06 231.898ZM320.06 236.838C319.444 236.838 318.923 235.916 318.923 234.826C318.923 233.736 319.444 232.814 320.06 232.814C320.676 232.814 321.196 233.736 321.196 234.826C321.196 235.916 320.676 236.838 320.06 236.838Z" fill="#F7F1EC"/>
<path d="M308.88 234.826C308.88 233.185 308.028 231.898 306.94 231.898C305.852 231.898 305 233.185 305 234.826C305 236.468 305.852 237.754 306.94 237.754C308.028 237.754 308.88 236.468 308.88 234.826ZM306.94 236.838C306.324 236.838 305.804 235.916 305.804 234.826C305.804 233.736 306.324 232.814 306.94 232.814C307.556 232.814 308.077 233.736 308.077 234.826C308.077 235.916 307.556 236.838 306.94 236.838Z" fill="#F7F1EC"/>
<circle cx="80" cy="310" r="8" fill="#F7F1EC"/>
<path d="M339.521 409.992C339.995 411.835 339.511 413.696 338.438 414.151C337.366 414.607 336.111 413.481 335.636 411.638C335.161 409.794 335.646 407.934 336.718 407.478C337.791 407.023 339.046 408.148 339.521 409.992ZM335.334 414.534C335.961 415.926 335.808 417.546 334.995 418.147C334.181 418.749 333.013 418.109 332.388 416.716C331.764 415.324 331.91 413.704 332.724 413.103C333.537 412.501 334.706 413.141 335.33 414.534H335.334ZM334.298 423.239C336.037 417.168 339.129 415.625 340.5 415.625C341.871 415.625 344.962 417.168 346.702 423.239C346.822 423.656 346.875 424.103 346.875 424.55V424.618C346.875 425.727 346.181 426.625 345.324 426.625C344.943 426.625 344.564 426.565 344.195 426.445L341.274 425.499C340.766 425.336 340.234 425.336 339.726 425.499L336.804 426.445C336.436 426.565 336.057 426.625 335.676 426.625C334.819 426.625 334.125 425.727 334.125 424.618V424.55C334.125 424.103 334.178 423.656 334.298 423.239ZM346.005 418.147C345.192 417.546 345.039 415.926 345.666 414.534C346.294 413.141 347.459 412.501 348.273 413.103C349.086 413.704 349.239 415.324 348.612 416.716C347.984 418.109 346.819 418.749 346.005 418.147ZM342.296 414.151C341.224 413.696 340.739 411.835 341.214 409.992C341.689 408.148 342.944 407.023 344.016 407.478C345.089 407.934 345.573 409.794 345.099 411.638C344.624 413.481 343.369 414.607 342.296 414.151Z" fill="#F7F1EC"/>
<g clip-path="url(#clip5_707_381)">
<path d="M556.973 191.005C557.933 190.045 557.52 188.07 556.052 186.601C554.583 185.133 552.607 184.719 551.647 185.68C550.687 186.64 551.101 188.615 552.569 190.084C554.038 191.552 556.013 191.966 556.973 191.005ZM552.295 186.327C552.931 185.692 554.391 186.077 555.483 187.17C556.576 188.262 556.962 189.722 556.326 190.358C555.69 190.994 554.23 190.608 553.138 189.515C552.045 188.423 551.659 186.963 552.295 186.327Z" fill="#F7F1EC"/>
<path d="M564.728 188.431C564.637 188.412 564.55 188.394 564.487 188.367C563.148 187.806 560.961 187.754 559.204 189.455L559.137 189.521C557.435 191.224 557.436 193.343 558.005 194.76C558.024 194.808 558.036 194.885 558.049 194.965C558.063 195.06 558.079 195.156 558.105 195.251C558.382 196.244 558.914 197.141 559.603 197.776C560.336 198.452 561.159 198.759 561.921 198.641C562.229 198.594 562.486 198.467 562.687 198.266C563.103 197.851 563.216 197.205 563.347 196.456C563.431 195.98 563.517 195.488 563.687 195.015C563.709 194.965 563.836 194.797 564.077 194.556C564.364 194.269 564.599 194.092 564.661 194.066C565.131 193.91 565.614 193.842 566.08 193.775C566.794 193.673 567.469 193.577 567.887 193.159C568.066 192.979 568.187 192.752 568.244 192.481C568.563 190.99 567.128 189.209 565.044 188.512C564.94 188.477 564.833 188.454 564.728 188.431ZM567.401 192.199C567.372 192.331 567.321 192.43 567.239 192.512C566.991 192.759 566.463 192.835 565.851 192.922C565.374 192.99 564.834 193.067 564.298 193.244C564.034 193.331 563.64 193.698 563.429 193.909C563.121 194.217 562.934 194.459 562.873 194.627C562.68 195.169 562.583 195.718 562.498 196.202C562.388 196.825 562.294 197.364 562.04 197.618C561.947 197.711 561.834 197.765 561.683 197.788C561.197 197.863 560.649 197.646 560.141 197.178C559.591 196.671 559.161 195.941 558.933 195.123C558.917 195.063 558.909 195.003 558.9 194.944C558.881 194.821 558.859 194.682 558.799 194.532C558.331 193.367 558.345 191.609 559.785 190.169L559.844 190.111C561.333 188.669 563.146 188.695 564.246 189.156C564.392 189.217 564.533 189.247 564.656 189.273C564.727 189.289 564.8 189.303 564.871 189.326C566.488 189.868 567.623 191.156 567.401 192.199Z" fill="#F7F1EC"/>
<path d="M560.675 187.303C561.636 186.343 561.222 184.367 559.754 182.899C558.285 181.431 556.31 181.017 555.349 181.978C554.39 182.937 554.803 184.913 556.271 186.382C557.74 187.85 559.715 188.264 560.675 187.303ZM555.997 182.625C556.633 181.99 558.093 182.375 559.185 183.467C560.278 184.56 560.664 186.02 560.028 186.656C559.392 187.291 557.932 186.905 556.84 185.813C555.748 184.721 555.361 183.261 555.997 182.625Z" fill="#F7F1EC"/>
<path d="M562.167 183.076C561.398 183.846 561.705 185.358 562.866 186.519C564.026 187.679 565.539 187.986 566.308 187.217C567.077 186.447 566.77 184.935 565.61 183.775C564.449 182.614 562.937 182.307 562.167 183.076ZM565.66 186.569C565.225 187.005 564.205 186.721 563.434 185.95C562.663 185.179 562.379 184.159 562.815 183.724C563.251 183.288 564.27 183.572 565.041 184.343C565.812 185.114 566.096 186.134 565.66 186.569Z" fill="#F7F1EC"/>
<path d="M556.333 193.052C555.172 191.891 553.66 191.584 552.89 192.353C552.121 193.122 552.428 194.635 553.589 195.796C554.75 196.956 556.262 197.263 557.031 196.494C557.8 195.725 557.493 194.212 556.333 193.052ZM556.383 195.846C555.948 196.282 554.928 195.998 554.157 195.227C553.386 194.456 553.103 193.437 553.538 193.001C553.974 192.565 554.993 192.849 555.765 193.62C556.535 194.391 556.819 195.411 556.383 195.846Z" fill="#F7F1EC"/>
</g>
<circle cx="1166" cy="340" r="8" fill="#F7F1EC"/>
<path d="M1052.52 344.992C1053 346.835 1052.51 348.696 1051.44 349.151C1050.37 349.607 1049.11 348.481 1048.64 346.638C1048.16 344.794 1048.65 342.934 1049.72 342.478C1050.79 342.023 1052.05 343.148 1052.52 344.992ZM1048.33 349.534C1048.96 350.926 1048.81 352.546 1047.99 353.147C1047.18 353.749 1046.01 353.109 1045.39 351.716C1044.76 350.324 1044.91 348.704 1045.72 348.103C1046.54 347.501 1047.71 348.141 1048.33 349.534H1048.33ZM1047.3 358.239C1049.04 352.168 1052.13 350.625 1053.5 350.625C1054.87 350.625 1057.96 352.168 1059.7 358.239C1059.82 358.656 1059.87 359.103 1059.87 359.55V359.618C1059.87 360.727 1059.18 361.625 1058.32 361.625C1057.94 361.625 1057.56 361.565 1057.2 361.445L1054.27 360.499C1053.77 360.336 1053.23 360.336 1052.73 360.499L1049.8 361.445C1049.44 361.565 1049.06 361.625 1048.68 361.625C1047.82 361.625 1047.12 360.727 1047.12 359.618V359.55C1047.12 359.103 1047.18 358.656 1047.3 358.239ZM1059.01 353.147C1058.19 352.546 1058.04 350.926 1058.67 349.534C1059.29 348.141 1060.46 347.501 1061.27 348.103C1062.09 348.704 1062.24 350.324 1061.61 351.716C1060.98 353.109 1059.82 353.749 1059.01 353.147ZM1055.3 349.151C1054.22 348.696 1053.74 346.835 1054.21 344.992C1054.69 343.148 1055.94 342.023 1057.02 342.478C1058.09 342.934 1058.57 344.794 1058.1 346.638C1057.62 348.481 1056.37 349.607 1055.3 349.151Z" fill="#F7F1EC"/>
<path d="M708.78 178.832C710.138 178.832 711.243 177.143 711.243 175.066C711.243 172.99 710.138 171.3 708.78 171.3C707.423 171.3 706.318 172.99 706.318 175.066C706.318 177.143 707.422 178.832 708.78 178.832ZM708.78 172.216C709.679 172.216 710.439 173.521 710.439 175.066C710.439 176.611 709.68 177.916 708.78 177.916C707.881 177.916 707.122 176.611 707.122 175.066C707.122 173.521 707.881 172.216 708.78 172.216Z" fill="#F7F1EC"/>
<path d="M716.084 182.495C716.033 182.417 715.985 182.343 715.959 182.279C715.409 180.936 713.899 179.353 711.454 179.313L711.36 179.313C708.952 179.313 707.454 180.813 706.855 182.217C706.834 182.264 706.789 182.327 706.741 182.392C706.684 182.47 706.627 182.549 706.579 182.635C706.072 183.533 705.814 184.543 705.852 185.48C705.893 186.475 706.257 187.274 706.88 187.73C707.131 187.914 707.402 188.007 707.687 188.007C708.274 188.007 708.811 187.63 709.433 187.193C709.829 186.916 710.238 186.629 710.692 186.414C710.743 186.395 710.952 186.366 711.293 186.366C711.699 186.366 711.989 186.407 712.052 186.432C712.495 186.655 712.884 186.947 713.261 187.23C713.838 187.663 714.383 188.072 714.975 188.072C715.228 188.072 715.475 187.996 715.707 187.845C716.987 187.016 717.231 184.743 716.251 182.776C716.201 182.678 716.142 182.586 716.084 182.495ZM715.309 187.049C715.196 187.122 715.09 187.156 714.974 187.156C714.624 187.156 714.197 186.836 713.703 186.465C713.317 186.176 712.881 185.848 712.377 185.594C712.128 185.469 711.59 185.45 711.292 185.45C710.856 185.45 710.553 185.489 710.392 185.565C709.871 185.811 709.415 186.131 709.012 186.413C708.494 186.776 708.046 187.091 707.687 187.091C707.555 187.091 707.437 187.049 707.315 186.959C706.917 186.668 706.683 186.127 706.655 185.437C706.625 184.689 706.838 183.869 707.255 183.129C707.285 183.075 707.322 183.028 707.357 182.979C707.431 182.879 707.514 182.765 707.578 182.617C708.071 181.462 709.323 180.229 711.36 180.229L711.443 180.229C713.515 180.263 714.779 181.563 715.231 182.667C715.291 182.813 715.369 182.934 715.438 183.04C715.477 183.101 715.518 183.162 715.552 183.229C716.313 184.756 716.204 186.47 715.309 187.049Z" fill="#F7F1EC"/>
<path d="M714.015 178.832C715.373 178.832 716.478 177.143 716.478 175.066C716.478 172.99 715.374 171.3 714.015 171.3C712.658 171.3 711.553 172.99 711.553 175.066C711.553 177.143 712.658 178.832 714.015 178.832ZM714.015 172.216C714.914 172.216 715.674 173.521 715.674 175.066C715.674 176.611 714.915 177.916 714.015 177.916C713.116 177.916 712.357 176.611 712.357 175.066C712.357 173.521 713.116 172.216 714.015 172.216Z" fill="#F7F1EC"/>
<path d="M718.06 176.898C716.972 176.898 716.12 178.185 716.12 179.826C716.12 181.468 716.972 182.754 718.06 182.754C719.148 182.754 720 181.468 720 179.826C720 178.185 719.148 176.898 718.06 176.898ZM718.06 181.838C717.444 181.838 716.923 180.916 716.923 179.826C716.923 178.736 717.444 177.814 718.06 177.814C718.676 177.814 719.196 178.736 719.196 179.826C719.196 180.916 718.676 181.838 718.06 181.838Z" fill="#F7F1EC"/>
<path d="M706.88 179.826C706.88 178.185 706.028 176.898 704.94 176.898C703.852 176.898 703 178.185 703 179.826C703 181.468 703.852 182.754 704.94 182.754C706.028 182.754 706.88 181.468 706.88 179.826ZM704.94 181.838C704.324 181.838 703.804 180.916 703.804 179.826C703.804 178.736 704.324 177.814 704.94 177.814C705.556 177.814 706.077 178.736 706.077 179.826C706.077 180.916 705.556 181.838 704.94 181.838Z" fill="#F7F1EC"/>
<circle cx="417" cy="166" r="4" fill="#F7F1EC"/>
<circle cx="1158" cy="158" r="4" fill="#F7F1EC"/>
<circle cx="736" cy="110" r="4" fill="#F7F1EC"/>
<circle cx="124" cy="242" r="4" fill="#F7F1EC"/>
<circle cx="1087" cy="250" r="4" fill="#F7F1EC"/>
<circle cx="439" cy="93" r="4" fill="#F7F1EC"/>
<defs>
<clipPath id="clip0_707_381">
<rect width="17" height="22" fill="white" transform="translate(797.289 407.768) rotate(135)"/>
</clipPath>
<clipPath id="clip1_707_381">
<rect width="17" height="22" fill="white" transform="translate(965 228)"/>
</clipPath>
<clipPath id="clip2_707_381">
<rect width="17" height="22" fill="white" transform="translate(1314 108)"/>
</clipPath>
<clipPath id="clip3_707_381">
<rect width="17" height="22" fill="white" transform="translate(22.6387 58.7237) rotate(-30)"/>
</clipPath>
<clipPath id="clip4_707_381">
<rect width="17" height="22" fill="white" transform="translate(217.009 204.699) rotate(-175)"/>
</clipPath>
<clipPath id="clip5_707_381">
<rect width="17" height="19.3721" fill="white" transform="translate(546.641 188.847) rotate(-45)"/>
</clipPath>
</defs>
</svg>
