<?xml version="1.0" encoding="UTF-8"?>
<svg xmlns="http://www.w3.org/2000/svg" id="a" width="865.76" height="682.89" viewBox="0 0 865.76 682.89">
  <path d="M379.25,142.77c-9.14-10.19-22.19-11.95-33-11.16,0,0,17.81-52.51,27.07-43.75,.03-.09,15.34,18.12,5.93,54.91Z" fill="#ebe8e0" stroke="#002346" stroke-miterlimit="10"></path>
  <path d="M360.02,512.28s-9.11,2.54-9.11-21.25c0,0-2.53-30.44-11.13-40.27l-5.06-28.7,45.43-45.2v83.3s.11,37.95,6.69,47.57c0,0,5.06,12.65,14.68,21.76,0,0,16.48,.62,17.85,21.06h-49.73l-9.62-38.27Z" fill="#ebe8e0" stroke="#002346" stroke-miterlimit="10"></path>
  <path d="M283.53,458.96s3.7,34.92-65.67,67.65l52.33-3.71s50.87-21.64,41.76,27.65h-40.48l-110.33-18.53v-48.58l109.82-32.67,12.57,8.19Z" fill="#ebe8e0" stroke="#002346" stroke-miterlimit="10"></path>
  <path d="M418.63,178.15s1,18.17-16.19,24.12l-24.78,11.9,6.94,23.79s21.48,68.4,8.92,103.75c0,0-13.88,55.18-49.89,83.27l1.65,73.69s8.25,22.47,16.52,29.41c0,0,17.84,2.64,17.84,14.54l.33,7.93h-47.58s-9.58-29.08-8.59-35c0,0-11.24-2.31-10.24-23.13,0,0-.67-25.77-10.91-41.63,0,0-37.15,15-60.47,29.17-1.21,.75-2.22,1.78-2.95,3-3.55,5.92-17.66,25.76-54.87,41.86,0,0,.65,9.92,35.68,1.32,0,0,45.27-15.19,53.2,.33,0,0,5.62,6.29,3.64,24.13H116.29s-8.59-3.64-6.28-15.86c0,0-46.26-27.1-47.26-95.17,0,0-2.64-75,69.73-93.18,0,0-64.11,42-51.55,104.09,0,0,4.29,37.67,34.69,59.8,0,0-7.71-72.91,46.93-131.95l50.66-48.9s55.74-48.47,68.95-77.54l-2.2-1.11,3.74-14.09,2.43,.66,4.63-53.31s-6.83-4.4-7.71-19.38c0,0-15.65-42.3-9.48-72.26,0,0,1.08-1.3,7.62,2.16,7.06,3.76,13.17,9.09,17.83,15.59,2.46,3.4,5.6,7.89,9.32,13.48,2.93,3.15,6.45,5.69,10.36,7.49,3.1,.72,5.94,2.32,8.16,4.6,6.24-2.26,12.77-3.66,19.39-4.16,10.78-.79,23.83,1,33,11.16h0c2.32,2.62,4.26,5.55,5.76,8.72,0,0,22.89-.45,26.54,5,0,.04,10.72,6.18,7.08,21.71Z" fill="#ebe8e0" stroke="#002346" stroke-miterlimit="10"></path>
  <path d="M449.92,503.12s33.61-101.51,47.43-119c0,0,17.44,10.19,33.87,47.5-.46,5.15-1.3,10.26-2.51,15.29-1.39,5.84-3.6,11.45-6.55,16.67l-31.59,56.33s-5.59,1.42-8.3,16.24c0,0-17.1-16.1-21.76-16.1,0,0,8.04-11.42-10.59-16.93Z" fill="#f2b3c1" stroke="#002346" stroke-miterlimit="10"></path>
  <path d="M465.88,457.23s44.91-.74,46.24,24.27l-21.55,38.42s-6.44,3.54-8.3,16.24l-21.76-16.1s7.2-11-10.59-16.94c2.29-7.03,4.69-14.15,7.18-21.35,2.89-8.36,5.82-16.54,8.78-24.54Z" fill="#e6e7e8" stroke="#002346" stroke-miterlimit="10"></path>
  <path d="M482.28,536.16l-32.36,49.11-16.14,9.88-19.76,12.09c-15.22,2.52-30.84,.82-45.16-4.91-5.49-2.21-9-7.64-8.76-13.56,.05-.82,.14-1.65,.28-2.46,2.38-13.59,17.56-20,17.56-20,22-14,44.88-48.14,44.88-48.14,11.44-18.07,27.1-15,27.1-15,17.79,4.24,10.59,16.94,10.59,16.94,8.39,3.64,15.83,9.14,21.77,16.1v-.05Z" fill="#F69946" stroke="#002346" stroke-miterlimit="10"></path>
  <path d="M433.78,595.15l.48-4.38c-38.38,10.79-70.43-2.94-73.88-4.51,0,0-5.72,17,20.89,20.14,1,.12,2,.3,3,.51,3.77,.79,14.47,2.47,30.3,.43l19.21-12.19Z" fill="#fff" stroke="#002346" stroke-miterlimit="10"></path>
  <path d="M479.18,378.13s-2.06,14.58,3.09,36.35c0,0,8.75-23,15.08-30.35,0,0-2.65-11.06-18.17-6Z" fill="#fff" stroke="#002346" stroke-miterlimit="10"></path>
  <path d="M653.02,530.1s-22.33,7.31-50.63-22.34l-55.91-72.09-44.46-86.9s37.83-63.33,75.51-24.25l22.18,26.25,48.51,106.46,4.8,72.87Z" fill="#ebe8e0" stroke="#002346" stroke-miterlimit="10"></path>
  <path d="M479.33,378.1c1.17-.26,9.23-1.7,18.02,6.04,0,0,15.62,9.61,33.87,47.5,0,0-.08,8.48-4.1,20.82,0,0,1.93,2,12.64-9.46l23-26.32s-13.25-51.52-60.74-67.9l-22.74,29.24s0,.1,.05,.09Z" fill="#fff" stroke="#002346" stroke-miterlimit="10"></path>
  <path d="M778.83,391.45s2.79,10.86,1.86,19.17c-.87,7.73-.8,15.53-.17,23.28,1.9,23.43,3.56,63.92-6.31,75.21-14.14,16.17-27,39.75-99.72,31.67,0,0-21.56,1.35-27-23.58l-18.47-66.72,15.6-18.85-27.76-53.47c-3.26-6.39-7.87-11.98-13.52-16.39-4.86-3.73-10.92-6.88-17.11-6.29,0,0,25.51-45.23,56.21-35.42,0,0,33.49,19.85,52.83,52.2,1.36,2.28,3.82,3.68,6.48,3.63,10.77-.2,40.65,.78,77.08,15.56Z" fill="#ebe8e0" stroke="#002346" stroke-miterlimit="10"></path>
  <path d="M506.02,520.69c14.54-16.15,27.3-33.81,38.06-52.68,0,0,29.51,5.9,42.11,32.07,0,0-26.25,25-31.41,40,0,0-7.13,24.19-16.65,14.67,0,0-7.13-12.85-14.67-12.37,0,0,3.17-7.85-8.32-16.18l-9.12-5.51Z" fill="#e6e7e8" stroke="#002346" stroke-miterlimit="10"></path>
  <path d="M559.59,578.49s-31.75,33.47-81.3,41.5c0,0-39.22,11.43-63.49-5.81-2.11-1.48-2.62-4.38-1.14-6.49,.11-.16,.23-.31,.36-.45,3.18-3.51,9.31-9.27,20.24-16.46l48-54.62s2.85-26.27,23.8-15.47c0,0,19.44,6.83,17.42,21.72,0,0,6.81-1.59,14.68,12.38,0,0,8.06,10.47,16.65-14.67,0,0,6.48,4.49,4.78,38.37Z" fill="#F69946" stroke="#002346" stroke-miterlimit="10"></path>
  <path d="M566.02,601.62c-.17,3.37-1.94,6.45-4.77,8.29l-10.94,7.12c-6.01,3.09-12.78,4.39-19.51,3.74-45.73,33.78-107.55,13.65-107.55,13.65-11-4.23-12.71-13.56-12.71-13.56-.42-16.1,3.48-13.6,3.48-13.6-1.73,1.91-1.58,4.86,.33,6.58,.14,.13,.29,.25,.45,.36,24.27,17.24,63.49,5.81,63.49,5.81,49.55-8,81.3-41.5,81.3-41.5,6.61,1.5,6.83,15.26,6.43,23.11Z" fill="#fff" stroke="#002346" stroke-miterlimit="10"></path>
  <line x1="514.29" y1="550.55" x2="523.49" y2="542.41" fill="none" stroke="#002346" stroke-linecap="round" stroke-linejoin="round"></line>
  <path d="M557.6,385.9s-4,23.67,7.81,44.65l16.86-29.67s-11.64-12.11-24.67-14.98Z" fill="#fff" stroke="#002346" stroke-miterlimit="10"></path>
  <path d="M283.7,236.64l2.43,.66s45.78,25.83,101.15,0l4.31,13.95s-22.06,14.8-60.19,12.81c0,0-30.78-1.57-51.44-13.32l3.74-14.1Z" fill="#fff" stroke="#002346" stroke-miterlimit="10"></path>
  <path d="M407.86,165c.69-.85,1.85-1.16,2.87-.76,.52,.28,.93,.75,1.13,1.31,.43,1.1,1.75,3.62,4.47,2.49,0,0,.72,.61,1-1.86,0,0,.1-1.24,1.22,0,0,0,1.79,1,2-2.65,0,0,0-7-7.93-7.68,0,0-12.55-2.15-13.38,7.43-.06,2.71,2.09,4.94,4.8,5,.02,0,.05,0,.07,0,.58,.06,1.17-.04,1.7-.29,.56-.22,.98-.71,1.09-1.3,.12-.66,.45-1.25,.96-1.69Z" fill="#fff" stroke="#002346" stroke-miterlimit="10"></path>
  <path d="M173.79,417.14c4.89-2.78,10.03-5.1,15.35-6.91,5.33-1.86,10.86-3.08,16.47-3.63,2.82-.25,5.65-.25,8.47,0,2.83,.26,5.62,.83,8.33,1.69,5.44,1.78,10.31,4.96,14.13,9.23,3.74,4.26,6.86,9.02,9.27,14.15,2.44,5.11,4.02,10.6,4.66,16.23,.6,5.63,.17,11.33-1.28,16.8-1.53,5.42-3.89,10.57-7,15.27,2.93-4.78,5.13-9.96,6.53-15.39,1.34-5.42,1.68-11.05,1-16.59-1.56-11.1-6.41-21.48-13.91-29.8-3.69-4.15-8.41-7.25-13.68-9-2.64-.85-5.36-1.42-8.12-1.69-2.77-.23-5.56-.23-8.33,0-5.57,.46-11.07,1.57-16.38,3.32-5.35,1.64-10.54,3.76-15.51,6.32Z" fill="#fff" opacity=".5"></path>
  <path d="M614.53,468.01s-15.53-72.7-56.93-82.11l28.63-30.4s6.81-1.6,17.45,6.76c5.66,4.44,10.21,10.15,13.53,16.54l27.43,52.83-30.11,36.38Z" fill="#fff" stroke="#002346" stroke-miterlimit="10"></path>
  <path d="M544.12,468.01l38.15-67.13s19.81,18.42,32.26,67.13l-28.3,32.07s-11.98-26.07-42.11-32.07Z" fill="#f2b3c1" stroke="#002346" stroke-miterlimit="10"></path>
  <path d="M590.11,286.77l-23.26,13.17s-14.46,8.86-41.09,1.35l-19.69-5h0l-67.3-17c-4.19-1.07-8.62-.58-12.47,1.38-10.22,5.23-31,14-34.57,1.29l-5.67-26,9.41-8.32c1.94-1.71,2.13-4.66,.43-6.6-.23-.26-.49-.5-.78-.71-2-1.27-4.33-1.94-6.7-1.93,0,0-27,2.38-21.76-10.87h29.8s17-1,29.34,11.82c0,0,9.27,9,17,12.3,0,0,11.6,8,54.53,9.94l33.88,3.31s12.11,3.83,25.71-6.63l9.91-7.48s19.13,7.72,22.92,32.21v.24c.2,1.18,.27,2.34,.36,3.53Z" fill="#f2b3c1" stroke="#002346" stroke-miterlimit="10"></path>
  <path d="M801.88,265.81c-3.52,30.67-14.03,59.51-14.03,59.51-15.35,30.66-9,66.08-9,66.08-29.45-11.13-65.05-14.3-77.15-15.09-2.64-.17-4.99-1.67-6.31-3.96-18.61-32.16-52.95-52.28-52.95-52.28-19.87-27.72,1.72-63.3,2.19-64.07-14.43,7.63-52.41,33.62-52.41,33.62-10-18-29-40-29-40l33.8-23.2c11.55-9.1,21.23-15.5,28.79-19.94,9.22-5.42,19.48-8.81,30.1-10.12,18.92-2.33,37.92-8.23,37.92-8.23l73.45,8.36h.01c9.9,1.7,18.3,7.49,23.59,12,4.43,3.8,7.62,8.82,9.19,14.43,3.59,12.67,3.52,28,1.81,42.89Z" fill="#F69946" stroke="#002346" stroke-miterlimit="10"></path>
  <path d="M733.89,151.98l-15.43-2.82-3.81,2.82-22.52,32.79,5.29,11.11s-18.09,24.11-15.56,43.43c1.35,9.78,10.36,16.61,20.14,15.27,2.16-.3,4.25-.99,6.16-2.04,7.79-4.22,17.55-13.29,27.32-32.35,6.74-11.57,7.74-14.57,11.74-25.57,0,0-13.85-31-13.37-42.63" fill="#f2b3c1" stroke="#002346" stroke-miterlimit="10"></path>
  <rect x="644.72" y="92.12" width="74" height="102" rx="37" ry="37" fill="#f2b3c1" stroke="#002346" stroke-miterlimit="10"></rect>
  <path d="M708.35,274.86l-19.12,15-126.48,2.21s-29.39-2.18-37,9.24c0,0-19,13.65-2.14,22.31,0,0,4.75,.87,4.3-3.32,0,0,9.92,1.1,7.51-4.52,0,0-9.76-6.44,3.41-5.21,0,0,25.34,9.12,30.77-2.38,0,0,39.94,6.43,60.55,15.51,0,0,57.5,18.36,88.14,0l20.73-13.13s-1.5-18.8-30.67-35.71Z" fill="#f2b3c1" stroke="#002346" stroke-miterlimit="10"></path>
  <path d="M403.58,261.08s2.58,3.45-1.84,9.48c-.03,.05,.01,.11,.06,.08,1.45-.9,9.59-5.67,9.33,.92,0,0,.55,7.34-6.91,13.06-2.5,1.88-3.7,2.48-5.06,2.79-2.14,.48-4.39,.1-6.28-1-2.75-1.6-8.04-5.13-11.66-11.79,0,0-8-11-4.12-21.2,0,0,4.35-11.3,9.76-9.99,1.9,.46,3.2,2.3,3.14,4.25-.05,1.57-.63,3.86-2.53,7.06-.1,.16,.1,.34,.25,.22,1.69-1.38,5.62-4.07,9.52-2.9,3.6,1.07,2.63,5.91-.03,8.56,0,0,3.72-3.07,6.36,.46Z" fill="#f2b3c1" stroke="#002346" stroke-miterlimit="10"></path>
  <g>
    <ellipse cx="724.56" cy="64.95" rx="22.06" ry="22.43" fill="#002346" stroke="#002346" stroke-miterlimit="10"></ellipse>
    <ellipse cx="711.6" cy="78.68" rx="16.97" ry="17.26" fill="#F69946" stroke="#002346" stroke-miterlimit="10"></ellipse>
    <path d="M659.03,107.65c4.75,3.84,14.95,9.68,34.05,11.17,0,0-.93,12.24,14.07,23.02,4.36,3.13,7.54,7.73,8.73,13.02,1.88,8.4,.83,22.41-13.17,33.26,0,0,13.85,2.36,27.27-2.19,0,0,8.41,8.55,22.32,7.86,5.72-.29,10.95-3.81,13.18-9.18,2.96-7.15,4.21-19.95-4.18-41.89,0,0-20.13-77.34-64.86-77.34,0,0-20.62-3.26-38.19,6.29-17.72,9.63-20.39,43.15-13.56,57.05l2.97-6.7c2.41-5.42,2.86-6.49,4.19-11.82,.13-.53,.36-1.05,.66-1.5h0c1.5-2.22,4.44-2.71,6.52-1.04Z" fill="#002346" stroke="#002346" stroke-miterlimit="10"></path>
  </g>
  <path d="M801.88,265.81l-62.46,48.72c-13.2-18.91-34-41.35-34-41.35,0,0,23.07-15.74,31.79-34,0-.01,12.6-32.92,30.3-42.65,9.8,1.75,18.12,7.48,23.37,11.96,4.43,3.8,7.62,8.82,9.19,14.43,3.59,12.67,3.52,28,1.81,42.89Z" fill="#F69946" stroke="#002346" stroke-miterlimit="10"></path>
  <path d="M527.91,320.3s-9.31-5.91,0-13.3" fill="none" stroke="#002346" stroke-linecap="round" stroke-linejoin="round"></path>
  <line x1="387.73" y1="254.96" x2="380.68" y2="264.25" fill="none" stroke="#002346" stroke-linecap="round" stroke-linejoin="round"></line>
  <line x1="397.22" y1="260.62" x2="387.73" y2="271.41" fill="none" stroke="#002346" stroke-linecap="round" stroke-linejoin="round"></line>
  <line x1="401.8" y1="270.64" x2="394.44" y2="279.69" fill="none" stroke="#002346" stroke-linecap="round" stroke-linejoin="round"></line>
  <line x1="644.64" y1="431.63" x2="674.46" y2="396.1" fill="none" stroke="#002346" stroke-linecap="round" stroke-linejoin="round"></line>
  <path d="M695.39,372.34l51.83,72.13s13,26.37,7,42.75" fill="none" stroke="#002346" stroke-linecap="round" stroke-linejoin="round"></path>
  <line x1="460.51" y1="520.11" x2="449.92" y2="536.15" fill="none" stroke="#002346" stroke-linecap="round" stroke-linejoin="round"></line>
  <path d="M173.79,417.14s51.61-30.42,72.02,14.53c0,0,9.35,26.65-3.62,48.3" fill="none" stroke="#002346" stroke-linecap="round" stroke-linejoin="round"></path>
  <line x1="377.66" y1="214.17" x2="356.72" y2="224.12" fill="none" stroke="#002346" stroke-linecap="round" stroke-linejoin="round"></line>
  <path d="M416.33,168.04s2.55,13.5-14.53,20.79l-32.08,14.29" fill="none" stroke="#002346" stroke-linecap="round" stroke-linejoin="round"></path>
  <path d="M302.65,450.79s-9.45-27.07-22.69-44.37" fill="none" stroke="#002346" stroke-linecap="round" stroke-linejoin="round"></path>
  <path d="M343.63,424.98v-39.08s18.09-9.93,26.09-25.36" fill="none" stroke="#002346" stroke-linecap="round" stroke-linejoin="round"></path>
</svg>
