<svg width="59" height="56" viewBox="0 0 59 56" fill="none" xmlns="http://www.w3.org/2000/svg">
<g clip-path="url(#clip0_715_332)">
<path d="M30.55 18.5885L25.2531 31.8714C24.4847 33.7913 22.9055 35.2959 20.8619 36.0553C18.8183 36.8146 16.4773 36.7666 14.3524 35.9217C13.9982 35.7805 13.7094 35.5178 13.5493 35.1915C13.3892 34.8652 13.371 34.502 13.4987 34.1817C13.6264 33.8615 13.8895 33.6104 14.2303 33.4838C14.571 33.3572 14.9613 33.3654 15.3155 33.5067C16.7321 34.0699 18.2927 34.1019 19.6551 33.5957C21.0175 33.0895 22.0703 32.0864 22.5826 30.8064L23.0641 29.5989L13.0498 25.6054C12.3421 25.3223 11.7648 24.7969 11.4447 24.1446C11.1246 23.4922 11.0878 22.766 11.3423 22.1254L15.1946 12.4652C15.4508 11.8252 15.9772 11.3236 16.6584 11.0705C17.3396 10.8174 18.1199 10.8334 18.8282 11.115L28.8426 15.1086C29.5503 15.3916 30.1275 15.917 30.4476 16.5694C30.7677 17.2218 30.8045 17.9479 30.55 18.5885ZM48.2036 22.8293L38.1893 18.8358C37.481 18.5542 36.7006 18.5382 36.0195 18.7913C35.3383 19.0444 34.8119 19.546 34.5557 20.186L30.7034 29.8462C30.4489 30.4868 30.4857 31.2129 30.8058 31.8653C31.1259 32.5177 31.7031 33.0431 32.4108 33.3262L42.4252 37.3197L41.9437 38.5272C41.4314 39.8072 40.3786 40.8103 39.0162 41.3165C37.6538 41.8227 36.0931 41.7907 34.6765 41.2274C34.3224 41.0862 33.932 41.078 33.5913 41.2046C33.2506 41.3312 32.9875 41.5822 32.8597 41.9025C32.732 42.2228 32.7502 42.586 32.9103 42.9123C33.0704 43.2386 33.3593 43.5013 33.7135 43.6425C35.8384 44.4874 38.1794 44.5354 40.223 43.7761C42.2665 43.0167 43.8458 41.5121 44.6142 39.5921L49.9111 26.3093C50.1656 25.6687 50.1288 24.9426 49.8087 24.2902C49.4886 23.6378 48.9114 23.1124 48.2036 22.8293Z" fill="black" fill-opacity="0.1"/>
</g>
<defs>
<clipPath id="clip0_715_332">
<rect width="46" height="41.6" fill="white" transform="translate(15.5229) rotate(21.7411)"/>
</clipPath>
</defs>
</svg>
